<?xml version="1.0" standalone="no"?><!DOCTYPE svg PUBLIC "-//W3C//DTD SVG 1.1//EN" "http://www.w3.org/Graphics/SVG/1.1/DTD/svg11.dtd"><svg t="1728007926005" class="icon" viewBox="0 0 1059 1024" version="1.1" xmlns="http://www.w3.org/2000/svg" p-id="3440" xmlns:xlink="http://www.w3.org/1999/xlink" width="206.8359375" height="200"><path d="M635.909709 1021.533692c1.083741-23.005598 6.032296-111.274738 6.032295-111.274739s56.143381-24.527617 76.057129-33.113876c29.938355-12.909272 55.800727-49.059218 65.881115-77.419774 17.076895-48.031258 7.426816-208.504666 20.702648-221.995652 24.416055-24.806521 52.971843-44.309881 79.411945-66.745718 28.121495-23.862232 146.727424-109.720844 150.472707-122.426915 5.199568-17.642672 4.514261-46.286115-4.410668-61.837007-9.104224-15.857686-36.102134-51.322325-48.895861-60.976389-6.386902-4.821055-42.086618 26.471977-55.808695 38.301491-33.42864 28.818755-61.884819 55.167217-94.803463 84.511905-23.690905 21.121004-54.736907 38.18993-83.045667 52.712861-27.424235 14.064732 135.152907-257.217247 142.830737-275.493429 8.550401-20.340072-127.447187-96.162124-139.408186-92.046298-2.107718 0.72515-14.642461 8.554385-21.519438 19.606953-35.293312 56.701189-113.59761 237.040533-127.626482 264.157973-8.574307 16.570884-33.572076 52.90411-56.844626 53.434027-3.470363 0.079687 0.055781-56.597596 0-78.053284-0.147421-56.880484 14.666367-283.836644 11.526705-298.805821-3.78911-18.065012-153.536667-17.104786-158.046943-6.857055-2.984273 6.773384-10.132185 95.719862-14.076685 128.471163-6.414793 53.266685-19.575078 214.337745-33.026221 251.017609-0.48609 1.322802-66.036505-362.638985-80.750684-366.786686C234.307832 29.699175 140.46858 83.8464 111.765371 101.182277a12.530759 12.530759 0 0 0-5.366911 14.606602c19.873904 60.314988 128.989128 391.987657 142.96222 445.776291 8.498604 32.711458 19.284221 78.997573 31.990292 109.864281 0 0-83.352461-10.450932-95.935016-13.291769-50.864126-11.486862-150.138022-35.962682-164.860171 36.735644-4.753321 23.463797 11.829515 104.369871 17.841889 111.784734 11.729907 14.46715 44.536989 6.386902 60.534127 4.195514 57.87657-7.920874 207.970764-22.344197 210.923163-21.579203 8.829305 2.287013 11.713969 37.090251 14.797851 44.094727 9.510627 21.607093 25.220893 48.832111 46.517207 61.08795 35.289328 20.304213 92.970665-15.857686 91.926767 39.855386-0.155389 8.43087-5.434644 64.522454-7.171818 74.941512l179.984738 12.279746z" fill="#ffffff" p-id="3441"></path><path d="M252.101908 648.288385c-8.434855-27.157284-15.841749-57.932351-22.021465-81.714895-13.937233-53.641213-122.785506-384.397483-142.603629-444.553098a32.48435 32.48435 0 0 1 13.985045-37.895088c20.822178-12.574587 74.770185-43.724183 118.115856-57.717197C242.061364 19.148634 262.325733 16.893496 275.96414 20.738387c3.518175 0.992101 8.912976 3.462394 13.267863 10.419058 3.095835 4.948554 7.821266 17.89767 12.797711 36.628067 13.387393 50.421864 33.042159 148.659831 47.927665 225.820622 6.084092-53.784649 11.223895-112.26684 14.602618-140.304663 3.159584-26.2369 8.375089-88.476326 11.861389-115.796968 1.251084-9.805469 2.900602-16.375651 3.76122-18.323994 1.729205-3.928562 7.777438-11.658188 21.272409-14.682305 17.873764-4.000281 62.63786-5.721517 100.22217-3.4863 27.838606 1.657487 51.915992 6.295262 61.430604 11.972951 8.072279 4.817071 11.642251 11.223895 12.849507 16.993224 3.18349 15.172379-11.251785 245.200468-11.10038 302.845946 0.023906 9.303441-0.306794 27.890403-0.633511 43.903478 8.881101-9.701876 16.148543-21.208659 19.861951-28.388446 14.100591-27.260876 92.922853-208.524588 128.407414-265.528587 10.024608-16.1087 28.87852-26.862442 31.954433-27.918293 3.558019-1.227178 12.749898-1.85272 25.089409 2.797009 24.344337 9.167974 77.136885 38.313445 108.852258 62.649813 14.303792 10.996787 24.543554 21.706702 28.607584 29.460234 4.781212 9.167974 4.382778 17.315956 1.713268 23.69489-4.900742 11.606392-71.638492 124.494789-113.513939 202.854867-3.864813 7.239552-7.649939 14.662383-11.116318 21.782405 11.873343-7.458691 23.228721-15.55886 33.229423-24.443946 32.990362-29.420391 61.51826-55.836586 95.026586-84.731044 11.95303-10.319449 39.524685-33.858949 53.549573-40.3096 12.510838-5.765345 22.312322-2.561933 27.292752 1.191319 14.064732 10.642181 44.10668 49.485543 54.147224 66.960872 11.196005 19.47547 12.749898 55.294716 6.255419 77.391883-0.717182 2.39459-2.271076 5.892844-5.418707 9.853281-2.828884 3.522159-7.968686 8.650009-14.901443 14.777929-33.269266 29.308829-113.832686 88.217344-136.38407 107.35016-25.141206 21.360064-52.35427 39.95101-75.822051 63.259418-0.637495 4.255279-2.988257 20.244448-3.665596 34.133868-2.908571 56.597596-2.390606 148.125929-14.74207 182.829559-11.634282 32.803098-42.138414 74.112769-76.758373 89.042103a21135.697789 21135.697789 0 0 0-64.713703 28.165322c-1.139522 21.109051-3.422551 63.677774-4.219419 80.639123a19.929685 19.929685 0 0 1-20.838115 18.961489 19.929685 19.929685 0 0 1-18.96149-20.838115c1.083741-23.041457 4.896758-93.18582 4.896758-93.18582a19.913748 19.913748 0 0 1 11.913186-17.176503s56.20713-24.555507 76.144784-33.15372c25.256752-10.88921 46.493301-41.871463 55.003858-65.797445 13.34755-37.500639 9.28352-145.285092 14.024889-193.615175 1.075773-10.757727 2.66951-19.156722 4.502308-24.404103 1.872641-5.279255 4.422621-8.91696 6.73354-11.275691 24.862302-25.23683 53.828477-45.142609 80.722794-67.964927 19.722499-16.738226 83.870425-63.932772 121.88106-95.102289 9.681954-7.924859 20.041247-17.702437 23.149034-20.650851 3.107788-13.259894 2.868727-32.587943-3.346849-43.401451-6.61401-11.486862-23.467782-34.580115-35.779402-47.628839-10.080388 7.637986-31.157564 23.670983-38.648129 30.121635-33.348953 28.747036-61.717477 55.027765-94.548466 84.29675-24.902145 22.200761-57.45423 40.301632-87.209304 55.565651-9.936952 5.095975-17.34783 2.434434-21.973653-0.430309-4.872852-3.012163-12.28373-10.454917-9.566409-24.806521 2.075843-10.941007 15.817843-40.305616 35.002456-76.188612 36.851191-68.901248 93.349178-164.836264 108.409995-192.635027-3.426535-3.462394-9.044459-8.920945-14.343636-12.98099-27.372438-21.005458-84.348546-49.282342-99.588659-56.69322-2.808962 2.251154-6.203622 5.370895-8.2197 8.606181-35.102064 56.398379-112.888397 235.813355-126.841567 262.783374-5.860969 11.323503-18.495321 30.723271-33.360906 44.584801-12.658258 11.805609-27.18119 19.304143-40.727957 19.614922-5.235427 0.115546-17.50322-1.781001-20.786318-17.407596-2.06389-9.809453 0.466168-60.183505 0.414371-80.515608-0.135468-51.390059 12.598493-243.4872 12.351464-286.812948-8.140013-1.609675-24.200901-4.498324-38.058446-5.323083-26.838536-1.597722-57.725165-1.151475-77.555242 0.896477-1.892563 0.195233-3.876766 0.466168-5.713548 0.753041-0.470153 3.43052-0.988117 7.478612-1.434363 11.506784-3.378723 30.595772-7.721657 81.149119-10.486792 104.118857-6.530339 54.230896-20.407806 218.150761-34.101994 255.496011a19.204534 19.204534 0 0 1-7.299316 9.478752c-4.605901 3.215365-9.606252 4.235357-14.957225 3.267162-1.581784-0.286873-11.793656-1.406473-15.55886-13.945202-0.191248-0.641479-1.095694-4.757306-2.434434-11.753812-8.845242-46.230335-45.266124-243.598762-66.243691-322.596335a330.290102 330.290102 0 0 0-5.912765-19.483439c-3.219349 0.215155-6.789321 0.856634-10.610306 1.665456-9.877187 2.083812-20.941708 5.821125-32.324977 10.379214-33.205517 13.2838-68.853436 33.516295-87.504146 44.608707 24.041527 73.001137 127.849606 388.927681 141.47606 441.377576 6.721587 25.878309 14.845663 60.48233 24.288556 88.715386 4.546136-2.713338 9.52258-5.948624 14.865585-9.442893 26.72299-17.463376 61.458495-40.297648 96.899227-46.967438 10.753742-2.024046 28.08962 1.390536 48.07907 10.263668 36.70377 16.299948 86.241109 49.760463 115.737203 72.172393a19.929685 19.929685 0 0 1 3.809032 27.914309 19.929685 19.929685 0 0 1-27.914309 3.813017c-27.503921-20.901865-73.574882-52.286536-107.800391-67.482822-6.454636-2.864743-12.407245-5.12785-17.634703-6.462605-2.76115-0.705229-5.072069-1.406473-6.904867-1.063819-35.91487 6.76143-70.363502 33.890824-94.624167 48.963594-12.478963 7.753532-23.503641 12.490916-31.842872 13.913327a19.86992 19.86992 0 0 1-4.653712 0.454215c-0.334685 0.003984-0.661401 0-0.984133-0.007969-13.471065-0.42234-85.858613-10.817492-98.935227-13.76989-24.033558-5.426675-59.470307-14.184262-90.671699-12.733961-23.555437 1.09171-45.027063 8.060326-50.278428 33.990432-3.753251 18.527196 7.972671 76.786263 14.415354 95.229788 0.729135 0.243045 1.701315 0.533902 2.406543 0.653432 2.908571 0.482106 6.092061 0.521949 9.335317 0.386481 10.984834-0.458199 22.463727-2.948414 29.994135-3.980359 52.425988-7.175802 180.036534-19.650781 207.201786-21.511469 6.765415-0.466168 10.749758 0.21117 11.419128 0.382497 6.048233 1.565847 12.722008 6.06417 17.311972 14.889491 3.350833 6.446667 6.072139 16.8976 8.028451 26.707053 1.107647 5.55019 2.701385 13.160286 2.940446 14.307776 7.98064 18.049075 20.288276 41.122407 37.974775 51.29842 7.566268 4.350903 16.690414 4.426605 25.571515 4.378793 13.738016-0.075703 27.280798-1.083741 38.213836 0.888508 11.781703 2.127639 21.344127 7.199708 28.20915 16.100731 5.924718 7.681814 10.235778 18.937583 9.913046 36.130025-0.159374 8.646025-0.565777 17.288065-1.012023 25.926121-0.585698 11.275691-1.601706 22.862162-3.45841 34.018323a19.925701 19.925701 0 0 1-39.301562-6.554245c1.613659-9.681954 2.462324-19.742421 2.968336-29.527967 0.426325-8.199778 0.81679-16.403541 0.968195-24.607304 0.103593-5.438629 0.533902-9.120162-1.657486-11.088428-1.828814-1.637565-4.585979-1.422411-7.482597-1.649518-4.478402-0.346638-9.351254-0.223123-14.403401-0.079687-19.674687 0.553824-41.142328 0.529918-58.398519-9.40305-24.734803-14.22809-43.775979-45.234249-54.820578-70.331627-1.306865-2.97232-2.904586-9.642111-4.426606-17.543063-0.729135-3.793095-2.179436-9.482737-3.362785-13.917311-37.544466 3.055991-149.078187 14.100591-196.993899 20.65882-12.666227 1.737174-34.687692 6.187685-51.290451 3.418566-11.486862-1.916469-20.993505-6.876976-27.42025-14.801835-2.45834-3.032085-7.4308-14.662383-11.307566-30.902566-7.271426-30.464288-14.232074-79.392023-10.5864-97.385317 7.769469-38.349304 33.022237-56.561737 65.247605-63.199653 39.30953-8.10017 90.795214 3.593878 123.526594 10.984834 7.777438 1.757095 38.249695 6.398855 62.29919 9.58633z m59.605775-154.560643c43.377545-4.056061 167.952021-7.765485 239.618403-0.031875 44.449333 4.797149 133.95362 45.453388 147.042187 50.083195a19.921716 19.921716 0 0 0 13.287785-37.560404c-13.865514-4.904727-108.975772-47.055094-156.054772-52.135131-74.056988-7.992593-202.779165-4.219419-247.603026-0.027891a19.929685 19.929685 0 0 0-17.977357 21.690765 19.933669 19.933669 0 0 0 21.68678 17.981341z" fill="#000000" p-id="3442"></path></svg>