<?xml version="1.0" encoding="UTF-8"?>
<svg viewBox="0 0 319.17 313.18" xmlns="http://www.w3.org/2000/svg" xmlns:xlink="http://www.w3.org/1999/xlink">
 <defs>
  <filter id="j" color-interpolation-filters="sRGB">
   <feGaussianBlur stdDeviation="0.742857"/>
  </filter>
  <filter id="h" color-interpolation-filters="sRGB">
   <feGaussianBlur stdDeviation="0.713761"/>
  </filter>
  <linearGradient id="i">
   <stop stop-color="#fff" offset="0"/>
   <stop stop-color="#fff" stop-opacity="0" offset="1"/>
  </linearGradient>
  <linearGradient id="l" x1=".29097" x2=".3052" y1=".81502" y2="1.2164">
   <stop stop-color="#dad9d9" offset="0"/>
   <stop stop-color="#dad9d9" offset=".27966"/>
   <stop offset="1"/>
  </linearGradient>
  <linearGradient id="k" x1=".50001" x2=".50001" y1="-.011912" y2="1.0119">
   <stop stop-color="#f9f8f8" offset="0"/>
   <stop stop-color="#ececec" offset=".070067"/>
   <stop stop-color="#e8e7e7" offset=".93328"/>
   <stop stop-color="#b4b3b4" offset="1"/>
  </linearGradient>
  <radialGradient id="n" cx="103.59" cy="94.288" r="25.809" gradientTransform="matrix(.50759 0 0 .65633 370.02 1969.4)" gradientUnits="userSpaceOnUse" xlink:href="#i"/>
  <radialGradient id="m" cx="103.59" cy="94.288" r="25.809" gradientTransform="matrix(2.9393 0 0 1.0218 -218.83 1962.9)" gradientUnits="userSpaceOnUse" xlink:href="#i"/>
 </defs>
 <g stroke-width=".443">
  <rect transform="matrix(4 0 0 4 -87.701 -3297.2)" x="25.428" y="826.31" width="74.286" height="74.286" rx="9.2857" ry="9.2857" fill="#888a85" filter="url(#j)" opacity=".722" stroke="#888a85"/>
  <rect transform="matrix(4 0 0 4 -87.701 -3297.2)" x="22.678" y="824.81" width="74.286" height="74.286" rx="9.2857" ry="9.2857" fill="url(#k)" stroke="url(#l)"/>
 </g>
 <path d="m182.87 52.957c0 26.558-39.622 48.088-88.497 48.088-48.876 0-88.497-21.53-88.497-48.088s39.622-48.088 88.497-48.088c48.876 0 88.497 21.53 88.497 48.088z" fill="url(#m)" filter="url(#h)" opacity=".763"/>
 <path d="m293.78 258.41c0 21.285-16.465 38.539-36.776 38.539s-36.776-17.255-36.776-38.539 16.465-38.539 36.776-38.539 36.776 17.255 36.776 38.539z" fill="url(#n)" filter="url(#h)" opacity=".763"/>
 <path d="m93.103 150.59c0 15.75-12.768 28.518-28.518 28.518s-28.518-12.768-28.518-28.518 12.768-28.518 28.518-28.518 28.518 12.768 28.518 28.518z"/>
 <path d="m268.1 150.59c0 15.75-12.768 28.518-28.518 28.518s-28.518-12.768-28.518-28.518 12.768-28.518 28.518-28.518 28.518 12.768 28.518 28.518z"/>
 <path d="m92.103 54.589c0 15.75-12.768 28.518-28.518 28.518s-28.518-12.768-28.518-28.518 12.768-28.518 28.518-28.518 28.518 12.768 28.518 28.518z"/>
 <path d="m268.1 54.589c0 15.75-12.768 28.518-28.518 28.518s-28.518-12.768-28.518-28.518 12.768-28.518 28.518-28.518 28.518 12.768 28.518 28.518z"/>
 <path d="m93.103 239.59c0 15.75-12.768 28.518-28.518 28.518s-28.518-12.768-28.518-28.518 12.768-28.518 28.518-28.518 28.518 12.768 28.518 28.518z"/>
 <path d="m268.1 238.59c0 15.75-12.768 28.518-28.518 28.518s-28.518-12.768-28.518-28.518 12.768-28.518 28.518-28.518 28.518 12.768 28.518 28.518z"/>
 <g fill="#fff">
  <path d="m35.191 153.73c-0.097198 0.95996-0.095215 1.8679-0.095215 2.8518 0 15.752 12.691 28.536 28.441 28.536s28.536-12.784 28.536-28.536c0-0.98389 0.002411-1.8918-0.094788-2.8518-1.5884 14.248-13.771 25.3-28.441 25.3s-26.758-11.052-28.346-25.3h-3.97e-4z"/>
  <path d="m211.19 153.73c-0.095947 0.95996-0.095947 1.8679-0.095947 2.8518 0 15.752 12.692 28.536 28.444 28.536 15.748 0 28.536-12.784 28.536-28.536 0-0.98389 0-1.8918-0.096008-2.8518-1.588 14.248-13.772 25.3-28.44 25.3-14.672 0-26.76-11.052-28.348-25.3z"/>
  <path d="m211.19 241.73c-0.095947 0.95996-0.095947 1.8679-0.095947 2.8518 0 15.752 12.692 28.536 28.444 28.536 15.748 0 28.536-12.784 28.536-28.536 0-0.98389 0-1.8918-0.096008-2.8518-1.588 14.248-13.772 25.3-28.44 25.3-14.672 0-26.76-11.052-28.348-25.3z"/>
  <path d="m35.191 241.73c-0.097198 0.95996-0.095215 1.8679-0.095215 2.8518 0 15.752 12.691 28.536 28.441 28.536s28.536-12.784 28.536-28.536c0-0.98389 0.002411-1.8918-0.094788-2.8518-1.5884 14.248-13.771 25.3-28.441 25.3s-26.758-11.052-28.346-25.3h-3.97e-4z"/>
  <path d="m35.191 57.734c-0.097198 0.95996-0.095215 1.8679-0.095215 2.8518 0 15.752 12.691 28.536 28.441 28.536s28.536-12.784 28.536-28.536c0-0.98389 0.002411-1.8918-0.094788-2.8518-1.5884 14.248-13.771 25.3-28.441 25.3s-26.758-11.052-28.346-25.3h-3.97e-4z"/>
  <path d="m211.19 57.734c-0.095947 0.95996-0.095947 1.8679-0.095947 2.8518 0 15.752 12.692 28.536 28.444 28.536 15.748 0 28.536-12.784 28.536-28.536 0-0.98389 0-1.8918-0.096008-2.8518-1.588 14.248-13.772 25.3-28.44 25.3-14.672 0-26.76-11.052-28.348-25.3z"/>
 </g>
</svg>
