<?xml version="1.0" standalone="no"?><!DOCTYPE svg PUBLIC "-//W3C//DTD SVG 1.1//EN" "http://www.w3.org/Graphics/SVG/1.1/DTD/svg11.dtd"><svg t="1728015034820" class="icon" viewBox="0 0 1024 1024" version="1.1" xmlns="http://www.w3.org/2000/svg" p-id="2008" xmlns:xlink="http://www.w3.org/1999/xlink" width="200" height="200"><path d="M824.5248 999.0144H199.2448a174.336 174.336 0 0 1-174.2592-174.2592V199.2448A174.336 174.336 0 0 1 199.2448 24.9856h625.5104a174.336 174.336 0 0 1 174.2592 174.2592v625.5104a174.3872 174.3872 0 0 1-174.4896 174.2592z" fill="#FFFFFF" p-id="2009"></path><path d="M819.1488 1024H204.6208C91.8528 1024 0 932.1472 0 819.3792V204.6208C0 91.8528 91.8528 0 204.6208 0h614.7584C932.1472 0 1024 91.8528 1024 204.6208v614.7584C1024 932.1472 932.1472 1024 819.1488 1024zM204.6208 66.7136a138.0096 138.0096 0 0 0-137.9072 137.9072v614.7584a138.0096 138.0096 0 0 0 137.9072 137.9072h614.7584a138.0096 138.0096 0 0 0 137.9072-137.9072V204.6208a138.0096 138.0096 0 0 0-137.9072-137.9072H204.6208z" fill="#000000" p-id="2010"></path><path d="M199.808 249.7536a74.9312 74.9312 0 1 0 149.8624 0 74.9312 74.9312 0 0 0-149.8624 0z" fill="#ffffff" p-id="2011"></path><path d="M287.232 374.6304a112.4352 112.4352 0 0 1-112.384-112.384 112.4352 112.4352 0 0 1 112.384-112.384 112.4352 112.4352 0 0 1 112.384 112.384 112.5632 112.5632 0 0 1-112.384 112.384z m0-157.3376c-24.7296 0-44.9792 20.224-44.9792 44.9536S262.4768 307.2 287.232 307.2c24.704 0 44.9536-20.224 44.9536-44.9536s-20.224-44.9536-44.9536-44.9536z" fill="#000000" p-id="2012"></path><path d="M674.3296 249.7536a74.9312 74.9312 0 1 0 149.8624 0 74.9312 74.9312 0 0 0-149.8624 0z" fill="#ffffff" p-id="2013"></path><path d="M736.768 374.6304a112.4352 112.4352 0 0 1-112.384-112.384 112.4352 112.4352 0 0 1 112.384-112.384 112.4352 112.4352 0 0 1 112.384 112.384 112.4352 112.4352 0 0 1-112.384 112.384z m0-157.3376c-24.704 0-44.9536 20.224-44.9536 44.9536S712.0384 307.2 736.768 307.2s44.9792-20.224 44.9792-44.9536-20.224-44.9536-44.9792-44.9536z" fill="#000000" p-id="2014"></path><path d="M199.808 774.2464a74.9312 74.9312 0 1 0 149.8624 0 74.9312 74.9312 0 0 0-149.8624 0z" fill="#ffffff" p-id="2015"></path><path d="M287.232 899.1232a112.4352 112.4352 0 0 1-112.384-112.384 112.4352 112.4352 0 0 1 112.384-112.384 112.4352 112.4352 0 0 1 112.384 112.384 112.5632 112.5632 0 0 1-112.384 112.384z m0-157.3376c-24.7296 0-44.9792 20.224-44.9792 44.9536s20.224 44.9536 44.9792 44.9536c24.704 0 44.9536-20.224 44.9536-44.9536s-20.224-44.9536-44.9536-44.9536z" fill="#000000" p-id="2016"></path><path d="M674.3296 774.2464a74.9312 74.9312 0 1 0 149.8624 0 74.9312 74.9312 0 0 0-149.8624 0z" fill="#ffffff" p-id="2017"></path><path d="M736.768 899.1232a112.4352 112.4352 0 0 1-112.384-112.384 112.4352 112.4352 0 0 1 112.384-112.384 112.4352 112.4352 0 0 1 112.384 112.384 112.4352 112.4352 0 0 1-112.384 112.384z m0-157.3376c-24.704 0-44.9536 20.224-44.9536 44.9536s20.224 44.9536 44.9536 44.9536 44.9792-20.224 44.9792-44.9536-20.224-44.9536-44.9792-44.9536z" fill="#000000" p-id="2018"></path></svg>