<?xml version="1.0" encoding="UTF-8"?>
<svg viewBox="0 0 1000 1000" xmlns="http://www.w3.org/2000/svg">
 <g fill-rule="evenodd">
  <g fill="#fdfdfd" stroke="#fdfdfd">
   <path d="m469 591q1-1 3-1 3 0 5 7 3 7 6 21 3 15 3 30-2 14-4 22-2 9-12 44-12 34-14 45t-2 35q-2 23-4 39t-6 26q-4 9-8 14t-12 9q-8 6-18 5-9-1-18-4-10-3-11-6-1-2-1-21t1-48q1-30 5-72t6-48 15-11 19-11q6-7 11-15t9-19 14-25q12-14 13-16z"/>
   <path d="m384 104h7l2 1h3l13 4q13 3 31 13 17 10 19 12t2 3h1v1h1v1h1v1h1v1h1v1h1l1 1q0 1 0 1h1v1h1v1l7 6q7 6 14 14t11 20q6 13 6 14 0 0 0 1h1v1l1 1v1q0 1 1 1l5 19q4 20 4 38v21h-3l-3-1h-1v-1h-1q0-1-5-5l-5-4h-1v-1h-1v-1h-1v-1h-1v-1h-1l-1-1h-1v1l1 2v1h1v1h1v1h1v1h1l6 6q5 4 6 5 1 0 4 3 2 2 7 5t16 12q12 9 43 27 30 19 39 27 8 7 15 13t17 14q9 8 15 18 6 9 9 18t7 40q2 32 5 53t2 35-4 24-10 28q-7 19-12 42-5 22-9 24-3 2-9 1t-12-4-11-11q-6-8-10-18-4-11-4-26-2-14 1-24t4-14q1-3-1-11t-9-37q-7-30-12-37-4-7-4-7h-1v-2h-1v-1h-1v-1h-1l-1-1-1-1h-1v1h-1v1h-1v2l1 1 1 1v1l3 5q3 5 3 6v2l1 3v3h-5v-1h-1v-1h-1q-1 0-8-3t-23-3-19 0q-4 2-10 6t-10 9q-5 5-8 6-2 1-5-3l-3-2h-4v5l1 1q1 1 1 2t0 8q0 6-4 16t-12 23-13 17q-4 4-10 12t-11 9q-6 1-7 1-1 1-1 6-2 5-4 14t-9 22q-7 14-15 18t-18 6q-11 2-23 0t-18-5q-5-4-9-10-2-6-2-14 2-8 10-23 8-14 15-24 7-9 13-28 8-19 9-31t6-32 5-35q0-14 0-23 2-9 5-17 3-7 9-11 5-5 11-8l6-3 1-1 1-1h2v-2l-1-2h-7l-3 1q-3 1-5 1-2 2-9 7l-6 6h-1v1h-1v1h-1v1h-2l-1 1h-2v-7l1-1q1-1 7-20t14-31q6-12 16-24l8-13h1v-1h1v-2l1-1 1-1v-2h-6v1h-1v1h-1v1h-1v1h-1l-11 16q-12 16-19 26-6 11-7 12l-1 1v1h-6v-1t-18-19-25-30q-7-10-11-22-6-11-12-32-8-20-12-38t-5-32q-1-15 1-25t8-27q8-17 17-28l9-11h1v-1h2l15-2q15-2 18-2t8 0z"/>
  </g>
  <path d="m382 451l2-3 2 2q0 1 0 14t-8 45-8 34q-2 2-2 2v1h-3v-1h-1v-3l-1-2q-1-2-1-5-2-3-2-19 0-15 6-26 6-12 10-24t6-15z" fill="#f7f7f7" stroke="#f7f7f7"/>
  <path d="m394 100v-1l11 3q11 2 9 3t4 1 16 6q11 6 18 10 6 4 5 5t1 2q0 1 1 0 0-1 1-1t1 1 2 2q1 1 2 1v1h1v1h2v1l1 1v1h-1v3l-1 1v1h-1v-1h-1v-1h-1v-1h-1v-1h-1v-1h-1q0-1-2-3t-19-12q-18-10-31-13l-13-4h-3l-2-1h-3l3-1q3-1 2-1 0 0 0-1l1-1zm4 2q-1 0 2 0 2 0 3 0t-1 0-4 0zm23 6t0-1q1 0 1 1 0 0-1 0zm3 1q-1-1 0-1 2 0 2 1t-2 0zm6 3t0-1 0 1zm2 1q0-1 0-1 0 1 0 1zm7 4q0-1 0-1 1 0 1 0 0 1-1 1zm3 2q0-1 1-1 1 1 2 2 0 1-1 0-2 0-2-1zm5 4q0-1 2-1 2 1 2 2t-2 0q-2 0-2-1zm5 3t0-1 0 1zm12 9q0-1 1-1 1 1 2 2 0 1-1 0-2 0-2-1z" fill="#141414" stroke="#141414"/>
  <path d="m505 530l3-5h1v-1h7v1l5 9q5 8 5 10v5h-1v1h-3q-4 0-10 0h-7v1h-1v2h1v1h4l7 4q8 2 11 8t4 8q1 3 1 6v4l1 1 1 1h4l1-2 1-2v-1l-1-3q-1-4-1-8-2-4 0-8 0-3 5-7 5-3 11-4l6-1h8v-2h-1l-1-1-2-1h-10q-5 0-7 0t-7 1q-6 0-12-14t-6-19 2-8q4-3 12-5 8-3 19-1 11 0 19 4 8 2 12 8 4 5 12 26 6 21 8 26 0 6-2 14-4 9-4 24 0 16-7 32t-11 23-8 9q-5 2-14 3t-18-2q-10-3-20-9-9-6-15-12-7-6-13-33-8-27-8-34-2-7 1-12t9-19q6-13 9-18z" fill="#fcfcfc" stroke="#fcfcfc"/>
  <path d="m393 99h1v1q0 1-1 1l2 1q1 2 1 2t0 1h-1v-1q-1 0-4 0h-7q-5 0-8 0t-18 2l-15 2h-2v1h-2v-1h-1v-2l1-1v-1h2l1-1 2-1 4-1q5-1 24-1 20 0 21-1zm-41 3q2 0 1 0t-3 0-1 0 3 0zm-6 2t0-1 0 1zm-5 2t0-1q1 0 1 1 0 0-1 0z" fill="#111" stroke="#111"/>
  <path d="m469 136l9 7q8 7 9 8 1 0 5 6 5 7 6 7 2 1 2 2-1 2 0 2t0 1q0 1 2 2 1 0 2 2 1 3 0 3t0 1q0 1 1 0 1 0 3 7 3 6 2 6 0 1 0 1 2 0 2 2 2 2 2 3v1l1 1 1 1v2h-2v1l-1 2v1h-2v-1l-1-2v-1h-1v-1h-1q0-1-6-14-4-12-11-20t-14-14l-7-6v-1h-1v-1h-1t0-1l-1-1v-1l1-1v-3h1v-1zm1 4t0-1 0 1zm2 2q0-1 1 0 1 0 2 1 0 1-1 1-2-1-2-2zm10 9q0-1 1-1t1 1-1 1-1-1zm3 2q0-1 1-1 2 1 2 2t-1 0q-1 0-2-1zm4 4q0-1 1-1t1 1-1 1-1-1zm3 4q0-1 1-1t1 1-1 1-1-1zm5 6q0-1 0-1 1 0 1 0 0 1-1 1zm4 7t0-1q1 0 1 1 0 0-1 0zm4 8t0-1q1 0 1 1 0 0-1 0zm6 14q-1-3 0-3t2 3 0 3-2-3z" fill="#0e0e0e" stroke="#0e0e0e"/>
  <path d="m338 106v2q-1 0 0 1h2l-9 11q-9 11-17 28-6 17-8 27t-1 25q1 14 5 32t12 38q6 21 12 32 4 12 11 22 7 11 25 30t18 19v1h6v-1l1-1q1-1 7-12 7-10 19-26l11-16h1v-1h1v-1h1v-1h1v-1h6v2l-1 1-1 1v2h-1v1h-1l-8 13q-10 12-16 24-8 12-14 31t-7 20l-1 1v7h2l1-1h2v-1h1v-1h1v-1h1l6-6q7-5 9-7 2 0 5-1l3-1h7l1 2v2h-2l-1 1-1 1-6 3q-6 3-11 8-6 4-9 11-3 8-5 17 0 9 0 23 0 15-5 35t-6 32-9 31q-6 19-13 28-7 10-15 24-8 15-10 23 0 8 2 14 4 6 9 10 6 3 18 5t23 0q10-2 18-6t15-18q7-13 9-22t4-14q0-5 1-6 1 0 7-1 5-1 11-9t10-12q5-4 13-17t12-23 4-16q0-7 0-8t-1-2l-1-1v-5h4l3 2q3 4 5 3 3-1 8-6 4-5 10-9t10-6q3 0 19 0t23 3 8 3h1v1h1v1h5v-3l-1-3v-2q0-1-3-6l-3-5v-1l-1-1-1-1v-2h1v-1h1v-1h1l1 1 1 1h1v1h1v1h1v2h1t4 7q5 7 12 37 7 29 9 37t1 11q-1 4-4 14t-1 24q0 15 4 26 4 10 10 18 5 8 11 11t12 4 9-1q4-2 9-24 5-23 12-42 7-18 10-28t4-24-2-35-5-53q-4-31-7-40t-9-18q-6-10-15-18-10-8-17-14t-15-13q-9-8-39-27-31-18-43-27-11-9-16-12t-7-5q-3-3-4-3-1-1-6-5l-6-6h-1v-1h-1v-1h-1v-1h-1v-1l-1-2v-1h1l1 1h1v1h1v1h1v1h1v1h1l5 4q5 4 5 5h1v1h1l3 1h3v-21q0-18-2-28-2-11-6-21l-2-10h-1v-1h-1v-2h2v2h1v1h1v1l1-1 1-1h1v-1h1v1l4 10q4 11 6 24 4 14 4 34 1 19 3 20 2 0 2 1t3 2q2 1 13 8t12 8q1 0 1 1t10 6q9 4 9 6-1 1 0 2t1 0q1 0 16 8 14 8 29 20t15 13 1 1 1 1q-1 1 1 3 3 1 3 2 0 2 4 3 3 1 5 3 2 1 1 2 0 2 1 1 1 0 2 1 0 1 1 2 2 1 2 2 0 2 3 4 3 1 6 6t4 6 2 2q1 0 5 9t3 9q-1-1-1 0t2 1q1 0 1 2l1 2v5l-1-2q-1-1-1-3v-2 17l1 2 1 2v-5h-1v-1h1q0-1-1-4v-3h2v6q1 6 1 10v4l-1-3-1-2v4q0 4 1 3t1 4v5l-1-2-1-3v10l1-1q1 0 1-2 0-1 1 11t1 11q0 2 0 5v3l1-3 1-3 2 9q2 9 2 19t0 15v5-8 8q0 9 0 12 0 2-1 5l-1 3v5l1-2q1-2 1-4v-2 9q0 2-3 10-3 9-3 8 0 0-1 2t0 1-1 6-3 7q-1-1-1-2-1 0-1 2 0 1 1 1t-4 13q-4 13-5 13-1 1-1 2t-1 1q-1 1 0 4 1 2 0 2t-1 1 0 2q-1 1-2 5 0 5-2 5-1-1 0 0 0 1-1 9-1 7-3 11t-7 9q-5 4-14 4t-16-3-9-7q-2-3-4-4-1 0-5-4-3-4-4-6-1-3-1-3-1 1-3-2l-3-3v-2h-1v-1h-1v2l-1 1q-1 1-2 4t-2 3-1 1-2 1q-1 1 0 1t0 1q-2 0-2 1t1 1q1 1 0 1t-3 3q-1 3-2 3t-1 1q-1 1-2 2-2 1-2 1 0 2-3 4-4 3-12 5-9 1-18 1-10-2-20-6-9-4-12-6-4-3-4-4-1 0-3 0t-5-3l-4-3h-2l-1 3q-1 3-1 1v-1l-2 11q-2 10-2 9t0 3q-2 5-2 4 0-2-1-1t-1 3v6-2q0-1 1-2l1-1v4l-1 1q0 2-1 2-2 0-2 1 1 1 0 4 0 4-8 25-6 20-7 20-1-1-1 2 0 2 0 1-1-1-1 0-1 1-1 8t-1 32-4 36-3 9q0-3-1 0l-1 2v2q0 3 0 4 0 0 0 3 0 2 0 1-1 0-1 2-1 3 0 2 1-2 1 0t-2 2q-1 1-1 4 0 2-1 8-2 5-3 6-2 1-2 2 0 2-1 2t-2 2q-2 2-6 6-4 5-9 9-6 3-26 4t-25-1q-6-1-6-2t-4-2q-3-2-8-8-4-6-6-11-2-6 0-21 2-14 2-12 0 1 1-5 1-5 0-5-1 1 0-24v-25h1l1 1h-1v7l1-3 1-3v-5q0-5 0-6t0-1q-1-1 0-9 0-9 1-9 1 1 1 0 1-1 0-1t0-5q0-5 1-11 0-7 1-7 1 1 1-1 1-2 0-1t1-9q0-11 2-24 1-13-12-15-12-3-19-6t-7-4 0-1q-1-1-1-2t-1-1q-1-1-4-4t-5-9q-1-5-2-11 0-5 0-7-1-1 1-6t6-11q5-7 6-10 0-3 10-17t11-19q1-6-1-12t-4-11q0-6 0-7t-1-1q-1-1-1-2t1-1 1-1-1-1q-1 1-1-3-1-4 0-4t1-2q-1-1-2 0-1 0-1-2 0-3 1-3t1-1-2 0q-1 0-1-4 0-5 1-5 2 0 2-3 0-2-2-2-1 0-1-2 1-1 2-2 1-2 1-3 0-2 1-2t1-1-1-1 5-13q6-12 7-11t1-1 1-6 2-5q2-1 1-1t2-9q4-8 6-12t2-7q1-4 2-4 0-1-1-1t-1-1q1-2 2-1 0 1 1-1 0-2-1-2t0-2q0-3 1-3t2-2 1-16-3-19q-3-4-6-6t-9-7q-5-4-6-8-2-4-2-3t-1 0-2-2q-2-2-4-4-2-3-3-3-1-1-1-3-1-2-1-2-1 0-6-7-4-7-3-7t-1-1q-1-1-6-12t-6-11-2-2q0-3 0-4 1 0 1-1-1-1-2-1-1 1-5-10-4-12-6-19-1-7-1-8 1-1-1-1-1 1-1 0 0-2 1-2t0-2q0-2-1 0-1 1-1-2-2-2-2-9-2-7-2-6t-1 0-1-9l-2-9 1 3 1 2v-4q0-3 0-28v-25l-1 3-1 3 2-7q0-7 7-22 7-14 9-17t10-9q7-6 10-8 2 0 1-1t1-2q1-1 2-1zm-7 8t0-1q1 0 1 1 0 0-1 0zm-2 2t0-1q1 0 1 1 0 0-1 0zm-4 2q1 0 1 1t-1 1-1-1 1-1zm-4 5q0-1 0-1 1 0 1 0 0 1-1 1zm-2 2q0-1 0-1 1 0 1 0 0 1-1 1zm-4 3q1 0 1 1t-1 1-1-1 1-1zm-4 5q1 0 1 1-1 2-2 0 0-1 1-1zm-4 8q2-3 2-2 1 1-1 5t-2 2 1-5zm-4 10q0-1 0-1 1 0 1 0 0 1-1 1zm-2 5t0-1q1 0 1 1 0 0-1 0zm-1 2q0-1 0 2 0 2 0 0 0-1 0-2zm220 58l-2-2-1-3q-1-3-1-5t2 4q2 7 2 6zm2 11q0-2 1-1t1 3-1 1-1-3zm4 17v3-7q-2-8 0-4 0 4 0 8zm-222 6t0-1 0 1zm224 12v-10 34-8q0-7 0-16zm-218 6q-2-5 0-3 0 2 0 5 0 2 0-2zm2 6q0-1 0 2 2 4 1 4 0 0 0-1-1 0-1-1 0-2 0-4zm218 17q0-1 0-1 0 1 0 1zm2 1t0-1 0 1zm6 3q0-1 1-1t1 1-1 1-1-1zm4 4q0-1 3 1 3 1 4 2 0 1-3 0-4-2-4-3zm8 5t0-1 0 1zm3 2q0-1 1-1t1 1-1 1-1-1zm3 2q0-1 2 0 1 0 0 1-2 0-2-1zm5 3q0-1 0-1 1 0 1 0 0 1-1 1zm-233 1q0-1 1 0 1 2 0 2t-1-2zm237 2q0-1 1 0 2 0 0 1-1 0-1-1zm-235 2q0-1 1-1 0 1 0 1 1 0 1 2 0 1-1 1 0-1 0-1-1 0-1-2zm239 0t0-1q1 0 1 1 0 0-1 0zm2 1q0-1 0-1 1 0 1 0 0 1-1 1zm3 2q0-1 2 0 1 1 0 1-2 0-2-1zm-242 2q0-1 0-1 0 1 0 1zm246 0q0-1 2 0 1 1 0 1-2 0-2-1zm-245 2q0-1 0-1 1 0 1 0 0 1-1 1zm252 3q0-1 1-1t1 1-1 1-1-1zm3 2t0-1 0 1zm2 1q0-1 0-1 0 1 0 1zm-252 3q-2-3 0-2 2 2 2 4 1 2 0 2t-2-4zm254-2q0-1 1-1t1 1-1 1-1-1zm3 2t0-1q1 0 1 1 0 0-1 0zm10 5q0-1 0-1 1 0 1 0 0 1-1 1zm-264 1q0-1 1-1t1 1-1 1-1-1zm266 0q0-1 1-1t1 1-1 1-1-1zm3 2t0-1 0 1zm3 2q0-1 2 0 1 1 2 2 0 1-2 0-1-1-2-2zm-267 3q0-1 0-1 0 1 0 1zm272 1t0-1 0 1zm2 1q0-1 1-1 1 1 2 2 0 1-1 0-2 0-2-1zm10 9q0-1 2 0t2 2-2 0-2-2zm6 5q0-1 2 0t2 2-2 0-2-2zm-274 2q0-1 0-1 0 1 0 1zm3 2q0-1 1-1t1 1-1 1-1-1zm278 3t0-1q1 0 1 1 0 0-1 0zm-273 2t0-1 0 1zm4 1q-2-1 0-1 1 0 1 1t-1 0zm277 5t0-1q1 0 1 1 0 0-1 0zm3 2t0-1 0 1zm3 2q0-1 1-1t1 1-1 1-1-1zm-273 14v7l-1-9q-1-9 0-9t1 2 0 9zm284-3q0-1 1-1 1 1 2 2 0 1-1 0-2 0-2-1zm-289 29q1 0 1 0-1 0-1 0zm-10 33q3-5 1 0-1 5-2 5t1-5zm13-2l2-3 2 2q0 1 0 14t-8 45-8 34q-2 2-2 2v1h-3v-1h-1v-3l-1-2q-1-2-1-5-2-3-2-19 0-15 6-26 6-12 10-24t6-15zm-17 12q1 0 1 1t-1 2-1-1 1-2zm327 9q0-1 1-1t1 4-1 1-1-4zm-333 7q1 0 1 1t-1 1-1-1 1-1zm-2 3q1 0 1 0-1 0-1 0zm-1 2t1 0-1 0zm-1 2q1 0 1 2-1 3-2 3t0-3q0-2 1-2zm150 44l3-5h1v-1h7v1l5 9q5 8 5 10v5h-1v1h-3q-4 0-10 0h-7v1h-1v2h1v1h4l7 4q8 2 11 8t4 8q1 3 1 6v4l1 1 1 1h4l1-2 1-2v-1l-1-3q-1-4-1-8-2-4 0-8 0-3 5-7 5-3 11-4l6-1h8v-2h-1l-1-1-2-1h-10q-5 0-7 0t-7 1q-6 0-12-14t-6-19 2-8q4-3 12-5 8-3 19-1 11 0 19 4 8 2 12 8 4 5 12 26 6 21 8 26 0 6-2 14-4 9-4 24 0 16-7 32t-11 23-8 9q-5 2-14 3t-18-2q-10-3-20-9-9-6-15-12-7-6-13-33-8-27-8-34-2-7 1-12t9-19q6-13 9-18zm195-18v14q0 2 0-7-2-9-2-15-1-6 0-6t1 2q1 1 1 12zm-347 43q1 0 1 0 0 1 0 1-1 0-1-1zm3 13q0-7 0-5 2 2 2 7t-2-2zm342 3t0 3 0 1 0-3q0-2 0-2t0 1zm-343 8q1-3 1-1 0 3-2 4-1 0 1-3zm341 0q0-1 0-1 0 1 0 1zm-3 9q1 0 0 3t-1 0 1-3zm-224 3q1-1 3-1 3 0 5 7 3 7 6 21 3 15 3 30-2 14-4 22-2 9-12 44-12 34-14 45t-2 35q-2 23-4 39t-6 26q-4 9-8 14t-12 9q-8 6-18 5-9-1-18-4-10-3-11-6-1-2-1-21t1-48q1-30 5-72t6-48 15-11 19-11q6-7 11-15t9-19 14-25q12-14 13-16zm-126 4q1 0 1 0 0 1 0 1-1 0-1-1zm-1 2t1 0q0 1-1 1 0 0 0-1zm-2 3t1 0-1 0zm347 2q0-1 1-1 1 1 1 1-1 0-1 1t-1-1zm-348 0q1 0 1 1t-1 1-1-1 1-1zm-2 3q1 0 1 1t-1 1-1-1 1-1zm346 10q0-1 0-1 1 0 1 0 0 1-1 1zm-351 0t1 0q0 1-1 1 0 0 0-1zm-2 3q1 0 1 1-1 1-2 1-1 1-1 0 1-2 2-2zm-3 4q1 0 1 0-1 0-1 0zm-1 2q1 0 1 1t-1 1-1-1 1-1zm275 18q1-1 2 0 1 0-1 1-1 0-2 5-2 5-3 5t1-5q2-6 3-6zm-279 4t1 0-1 0zm284 1t1 0q0 1-1 1 0 0 0-1zm1 2q1 0 1 0 0 1 0 1-1 0-1-1zm66 1q-1 0-1 2 0 3 1 2 1-2 1-4 0-1-1-1 0 1 0 1zm-349 7q0-1 2 0t2 2-2 0-2-2zm347 0q0-1 0-1 1 0 1 0 0 1-1 1zm-169 1q-2 0 0-1 1 0 1 1t-1 0zm111 0q0-1 2 0 1 1 2 2 0 1-2 0-1-1-2-2zm56 6q-1 5-2 5t1-5 1 0zm-165-5t1 0q0 1-1 1 0 0 0-1zm-176 3q0-1 1-1t1 1-1 1-1-1zm179 0q0-1 1 0 2 0 2 1t-1 1q-1-1-2-2zm111 1t1 0q0 1-1 1 0 0 0-1zm-102 4t1 0q0 1-1 1 0 0 0-1zm2 1t1 0-1 0zm106 1q0-1 1-1t1 1-1 1-1-1zm-104 1q0-1 1-1t1 1-1 1-1-1zm-182 2q0-1 1-1t1 1-1 1-1-1zm290 1q0-1 1-1t1 1-1 1-1-1zm-287 0q1 0 1 0 0 1 0 1-1 0-1-1zm322 0q1 0 1 1t-2 2q-1 0 0-1 0-1 1-2zm-320 2q0-1 3 0 2 1 0 1-3 0-3-1zm288-1q1 0 1 0-1 0-1 0zm-100 1q1 0 1 0 0 1 0 1-1 0-1-1zm47 0t1 0q0 1-1 1 0 0 0-1zm55 1q0-1 3 0 2 2 0 1-3 0-3-1zm-100 0q1 0 1 0-1 0-1 0zm43 0q1 0 1 1t-1 1-1-1 1-1zm82 1q1 0 1 1t-1 1-1-1 1-1zm-302 2q-2-1 0-1 3 0 6 1 2 1-2 1-3 0-4-1zm200 1h10l4-1q4-1 2 0l-1 1h-1q-2 0-6 1-5 1-14-1-9 0-6 0t12 0zm84-1q-1-1 5 1 6 0 4 0t-5 0q-2 0-4-1zm-148 7t1 0-1 0zm-118 12q0-2 1 0 0 1-1 1t0-1zm113 8q1-2 1 0 0 1-1 1t0-1zm-2 2q1 0 1 0-1 0-1 0zm-115 17t1 0q0 1-1 1 0 0 0-1zm108 4t1 0q0 1-1 1 0 0 0-1zm-1 2q1 0 1 0 0 1 0 1-1 0-1-1zm-109 12v-9 8q0 9-1 10-1 0 1-9zm106-1t1 0-1 0zm-5 26l-1 2 1-5q1-5 1-1 0 3-1 4zm-2 8l1-5v11q0 12 0 22 0 9-1 12l-1 2v5-9q0-3 0-18v-16l1-4zm-106 18q0-1 1-1t1 3q-1 3-1 1t-1-3zm2 15q1-2 1 3 0 4-1 2-1-3 0-5zm101 15t1 0-1 0zm-1 4q1-2 1 0 0 3-1 4-1 2-1 0 0-3 1-4zm-104 17q0-1 1-1t1 2q-1 2-1 1t-1-2zm-1 14t1 0q0 1-1 1 0 0 0-1zm1 15l-1-2v-2q0-3 1-2 1 2 1 6 0 3-1 0zm93-2t1 0-1 0zm-90 8t1 0-1 0zm1 3q0-1 1-1t1 1-1 1-1-1zm71 9l2-3 3-3q4-3-1 2-4 6-5 6t1-2zm-68-5q-1-2 0-1 2 0 1 1 0 1-1 0zm6 5q-1 0 0-1 2 0 2 1t-2 0zm58 2t1 0-1 0zm-52 2q-1 0 7 1t7 1q-2 0-6 0-3 0-4-1-2-1-4-1zm49 0q1 0 1 0-1 0-1 0zm-3 1q2 1 0 1-1 1-1 0t1-1z" fill="#070707" stroke="#070707"/>
  <path d="m0 500v-500h1e3v1e3h-1e3v-500zm393-401h1l11 3q11 2 9 3t4 1 16 6q11 6 18 10 6 4 5 5t1 2q0 1 1 0 0-1 1-1t1 1 2 2q1 1 2 1v1h1v1h2v1l1 1 9 7q8 7 9 8 1 0 5 6 5 7 6 7 2 1 2 2-1 2 0 2t0 1q0 1 2 2 1 0 2 2 1 3 0 3t0 1q0 1 1 0 1 0 3 7 3 6 2 6 0 1 0 1 2 0 2 2 2 2 2 3v1l1 1 1 1v3l4 10q4 11 6 24 4 14 4 34 1 19 3 20 2 0 2 1t3 2q2 1 13 8t12 8q1 0 1 1t10 6q9 4 9 6-1 1 0 2t1 0q1 0 16 8 14 8 29 20t15 13 1 1 1 1q-1 1 1 3 3 1 3 2 0 2 4 3 3 1 5 3 2 1 1 2 0 2 1 1 1 0 2 1 0 1 1 2 2 1 2 2 0 2 3 4 3 1 6 6t4 6 2 2q1 0 5 9t3 9q-1-1-1 0t2 1q1 0 1 2l1 2v5l-1-2q-1-1-1-3v-2 17l1 2 1 2v-5h-1v-1h1q0-1-1-4v-3h2v6q1 6 1 10v4l-1-3-1-2v4q0 4 1 3t1 4v5l-1-2-1-3v10l1-1q1 0 1-2 0-1 1 11t1 11q0 2 0 5v3l1-3 1-3 2 9q2 9 2 19t0 15v5-8 8q0 9 0 12 0 2-1 5l-1 3v5l1-2q1-2 1-4v-2 9q0 2-3 10-3 9-3 8 0 0-1 2t0 1-1 6-3 7q-1-1-1-2-1 0-1 2 0 1 1 1t-4 13q-4 13-5 13-1 1-1 2t-1 1q-1 1 0 4 1 2 0 2t-1 1 0 2q-1 1-2 5 0 5-2 5-1-1 0 0 0 1-1 9-1 7-3 11t-7 9q-5 4-14 4t-16-3-9-7q-2-3-4-4-1 0-5-4-3-4-4-6-1-3-1-3-1 1-3-2l-3-3v-2h-1v-1h-1v2l-1 1q-1 1-2 4t-2 3-1 1-2 1q-1 1 0 1t0 1q-2 0-2 1t1 1q1 1 0 1t-3 3q-1 3-2 3t-1 1q-1 1-2 2-2 1-2 1 0 2-3 4-4 3-12 5-9 1-18 1-10-2-20-6-9-4-12-6-4-3-4-4-1 0-3 0t-5-3l-4-3h-2l-1 3q-1 3-1 1v-1l-2 11q-2 10-2 9t0 3q-2 5-2 4 0-2-1-1t-1 3v6-2q0-1 1-2l1-1v4l-1 1q0 2-1 2-2 0-2 1 1 1 0 4 0 4-8 25-6 20-7 20-1-1-1 2 0 2 0 1-1-1-1 0-1 1-1 8t-1 32-4 36-3 9q0-3-1 0l-1 2v2q0 3 0 4 0 0 0 3 0 2 0 1-1 0-1 2-1 3 0 2 1-2 1 0t-2 2q-1 1-1 4 0 2-1 8-2 5-3 6-2 1-2 2 0 2-1 2t-2 2q-2 2-6 6-4 5-9 9-6 3-26 4t-25-1q-6-1-6-2t-4-2q-3-2-8-8-4-6-6-11-2-6 0-21 2-14 2-12 0 1 1-5 1-5 0-5-1 1 0-24v-25h1l1 1h-1v7l1-3 1-3v-5q0-5 0-6t0-1q-1-1 0-9 0-9 1-9 1 1 1 0 1-1 0-1t0-5q0-5 1-11 0-7 1-7 1 1 1-1 1-2 0-1t1-9q0-11 2-24 1-13-12-15-12-3-19-6t-7-4 0-1q-1-1-1-2t-1-1q-1-1-4-4t-5-9q-1-5-2-11 0-5 0-7-1-1 1-6t6-11q5-7 6-10 0-3 10-17t11-19q1-6-1-12t-4-11q0-6 0-7t-1-1q-1-1-1-2t1-1 1-1-1-1q-1 1-1-3-1-4 0-4t1-2q-1-1-2 0-1 0-1-2 0-3 1-3t1-1-2 0q-1 0-1-4 0-5 1-5 2 0 2-3 0-2-2-2-1 0-1-2 1-1 2-2 1-2 1-3 0-2 1-2t1-1-1-1 5-13q6-12 7-11t1-1 1-6 2-5q2-1 1-1t2-9q4-8 6-12t2-7q1-4 2-4 0-1-1-1t-1-1q1-2 2-1 0 1 1-1 0-2-1-2t0-2q0-3 1-3t2-2 1-16-3-19q-3-4-6-6t-9-7q-5-4-6-8-2-4-2-3t-1 0-2-2q-2-2-4-4-2-3-3-3-1-1-1-3-1-2-1-2-1 0-6-7-4-7-3-7t-1-1q-1-1-6-12t-6-11-2-2q0-3 0-4 1 0 1-1-1-1-2-1-1 1-5-10-4-12-6-19-1-7-1-8 1-1-1-1-1 1-1 0 0-2 1-2t0-2q0-2-1 0-1 1-1-2-2-2-2-9-2-7-2-6t-1 0-1-9l-2-9 1 3 1 2v-4q0-3 0-28v-25l-1 3-1 3 2-7q0-7 7-22 7-14 9-17t10-9q7-6 9-7 2 0 1-1 0-2 2-2 1-2 2-2v-1q1-1 2-1h1l1-1 2-1 4-1q5-1 24-1 20 0 21-1z" fill="#fefefe" stroke="#fefefe"/>
 </g>
</svg>
