<?xml version="1.0" encoding="UTF-8"?>
<svg viewBox="0 0 1000 1000" xmlns="http://www.w3.org/2000/svg">
 <g fill-rule="evenodd">
  <path d="m619 294l1 1v7h-3v-1h-1v-3l-1-1-1-1v-2q0-1-2-4-2-4-8-8l-5-4-3-2q-2-1-2-3 0-1 4 0 5 1 9 5 5 3 8 8 3 6 4 8z" fill="#1f1f1f" stroke="#1f1f1f"/>
  <path d="m0 500v-500h1e3v1e3h-1e3v-500zm731-385v1l3 1q2 1 4 3t6 6q5 4 8 10 4 5 7 20 3 14 3 30t-2 28q-2 13-8 26-6 14-22 36-16 23-20 27-3 5-4 5t-10 10q-8 10-12 14-5 4-11 10-5 6-7 9-1 3-2 3-2 1-2 2t-4 4q-4 4-14 12t-8 14q0 6 2 6 1 1 4 8 2 7 6 15t10 26q5 18 6 18t3 13q1 13 3 40 0 28-2 44t-1 58q1 41 1 74 2 32 0 38 0 7-3 14-2 6-4 8-1 2-2 4 0 1-2 2-3 1-5 3-2 3-8 5t-14 3q-7 1-13 1h-7v5q0 4 0 17 0 12-1 28-1 17-5 24-4 6-8 12-6 5-12 8-7 2-18 2t-19-2q-8-3-9-4 0-2-4-3t-5 3q-1 3-2 3t-1 1q0 2-1 2t-1 2q0 1-1 1t-3 5q-1 5-4 7-2 2-12 8-10 5-18 6t-12-1q-4 0-14-5-9-4-9-5t-1-1q-1-1-5-5-5-4-6-8-2-3-3-3t-4-9-14-9q-10-1-20-4t-10-5q0-1-4-4-4-2-6-6t-3-4-3-4q-1-3-2-3t-4-9q-4-9-5-9t-6-17-6-18q-2-1-7-24-6-24-12-55t-7-44l-1-12h-3l-3 1h-1t0 1q-1 0-12 6t-21 7q-10 0-18-2-9-2-15-6t-9-9q-2-5-3-12t1-11 6-11q6-7 7-10t2-3 5-4q5-4 6-6 1-3 2-3 2-1 5-4t5-6q1-3 2-3t6-6q4-4 8-15 5-10 6-10t2-4q2-4 6-21t5-17 7-27q5-26 6-26t2-4q1-5 2-5t4-7q2-6 4-6 1-1 1-2 1-1 4-4 4-4 10-8 6-5 6-6 1-1 4-4 3-2 9-6 6-3 6-4t6-5q6-5 8-7 1-3 2-3 2-1 4-2 1-1 8-11 6-10 7-10t6-8q5-7 6-7 1-1 3-5 1-4 2-4 2 0 2-1t8-11q8-11 10-13t7-11q5-8 8-11t6-5 8-4q4-2 11-6 6-4 17-8 10-4 13-7 2-3 4-3h1l1-1 2-1h3l2-1 2-1h2l2-1q1-1 2-2 0-1 16-7t17-8 6-6q6-5 19-20 14-16 16-18 3-2 2-3 0-1 3-3 2-1 4-4t3-3 5-6q5-5 9-9 5-3 5-4t7-5 16-9q9-6 15-7t20-1q14 2 22 4 7 2 7 3z" fill="#fefefe" stroke="#fefefe"/>
  <path d="m731 118v-2l3 1q2 1 4 3t6 6q5 4 8 10 4 5 7 20 3 14 3 30t-2 28q-2 13-8 26-6 14-22 36-16 23-20 27-3 5-4 5t-10 10q-8 10-12 14-5 4-11 10-5 6-7 9-1 3-2 3-2 1-2 2t-4 4q-4 4-14 12t-8 14q0 6 2 6 1 1 4 8 2 7 6 15t10 26q5 18 6 18t3 13q1 13 3 40 0 28-2 44t-1 58q1 41 1 74 2 32 0 38 0 7-3 14-2 6-4 8-1 2-2 4 0 1-2 2-3 1-5 3-2 3-8 5t-14 3q-7 1-13 1h-7v5q0 4 0 17 0 12-1 28-1 17-5 24-4 6-8 12-6 5-12 8-7 2-18 2t-19-2q-8-3-9-4 0-2-4-3t-5 3q-1 3-2 3t-1 1q0 2-1 2t-1 2q0 1-1 1t-3 5q-1 5-4 7-2 2-12 8-10 5-18 6t-12-1q-4 0-14-5-9-4-9-5t-1-1q-1-1-5-5-5-4-6-8-2-3-3-3t-4-9-14-9q-10-1-20-4t-10-5q0-1-4-4-4-2-6-6t-3-4-3-4q-1-3-2-3t-4-9q-4-9-5-9t-6-17-6-18q-2-1-7-24-6-24-12-55t-7-44l-1-12h-3l-3 1h-1t0 1q-1 0-12 6t-21 7q-10 0-18-2-9-2-15-6t-9-9q-2-5-3-12t1-11 6-11q6-7 7-10t2-3 5-4q5-4 6-6 1-3 2-3 2-1 5-4t5-6q1-3 2-3t6-6q4-4 8-15 5-10 6-10t2-4q2-4 6-21t5-17 7-27q5-26 6-26t2-4q1-5 2-5t4-7q2-6 4-6 1-1 1-2 1-1 4-4 4-4 10-8 6-5 6-6 1-1 4-4 3-2 9-6 6-3 6-4t6-5q6-5 8-7 1-3 2-3 2-1 4-2 1-1 8-11 6-10 7-10t6-8q5-7 6-7 1-1 3-5 1-4 2-4 2 0 2-1t8-11q8-11 10-13t7-11q5-8 8-11t6-5 8-4q4-2 11-6 6-4 17-8 10-4 13-7 2-3 4-3h1l1-1 2-1h4v4h-1l-1 1-1 1h-2l-21 12q-22 12-29 17t-17 19-18 24q-9 12-13 17-5 5-11 17-8 11-20 24-13 12-24 22-11 8-21 18-9 10-13 16-4 5-8 24-4 20-12 48-6 27-14 41-6 14-13 23-6 10-21 24-14 16-17 20t-3 14q0 9 3 11 2 3 7 5t16 1 23-6 18-12q7-6 9-49 4-43 4-46 0-4 1-8l1-4v-1h1v-1h2v1h1v67q-2 65 0 79t16 66q12 52 16 64t8 19q3 8 8 14t12 11q6 5 10 5 4 2 11 2h7v-1l1-1 1-1v-5q0-6-2-14 0-9-3-58-3-48-3-118v-71h1v-1h7v1l1 1 1 1 2 70q2 70 4 107t6 66q4 28 8 40t8 17 12 7q8 4 16 4t14-4q5-4 9-9 3-6 7-17 4-12 0-84-4-71-4-94-2-23-1-56 1-34 3-48 4-15 5-18 1-4 2-6l1-1v-2h1v-1h7v8q0 6-4 21-2 15-2 49t4 99 6 86 5 29 8 12 9 6q5 2 14 1 8-1 11-3t7-6q4-5 5-11t1-60 0-89q-2-36-2-48-2-13-1-42t3-37q2-7 6-16 4-8 4-9v-1h1v-1h1v-1h1v-1h5v1h1v1h1v8q0 2-4 12t-6 26q-2 15 2 91t6 81q0 4 3 6 2 2 11 3 10 1 14-1t8-8 6-13 2-47q0-39 0-68-2-29 0-42 2-12 2-52t-6-62-13-39-11-27q-2-10-3-20l-1-9 1-1 1-2 1-1h1l2 4q1 5 5 4 3-1 11-8t20-18q11-11 28-29 16-17 34-42t22-34q4-10 6-26 4-16 3-30-1-15-5-30-6-14-8-18t-4-5-3-1h-1v-1h-1q0-1-1-2l-2-1q0-1-1-2z" fill="#070707" stroke="#070707"/>
  <path d="m731 120h1l2 1q1 1 1 2h1v1h1q1 0 3 1t4 5 8 18q4 15 5 30 1 14-3 30-2 16-6 26-4 9-22 34t-34 42q-17 18-28 29-12 11-20 18t-11 8q-4 1-5-4l-2-4h-1l-1 1-1 2-1 1 1 9q1 10 3 20 4 10 11 27t13 39 6 62-2 52q-2 13 0 42 0 29 0 68 0 40-2 47t-6 13-8 8-14 1q-9-1-11-3-3-2-3-6-2-5-6-81t-2-91q2-16 6-26t4-12v-8h-1v-1h-1v-1h-5v1h-1v1h-1v1h-1v1q0 1-4 9-4 9-6 16-2 8-3 37t1 42q0 12 2 48 0 35 0 89t-1 60-5 11q-4 4-7 6t-11 3q-9 1-14-1-4-2-9-6t-8-12-5-29-6-86-4-99 2-49q4-15 4-21v-8h-7v1h-1v2l-1 1q-1 2-2 6-1 3-5 18-2 14-3 48-1 33 1 56 0 23 4 94 4 72 0 84-4 11-7 17-4 5-9 9-6 4-14 4t-16-4q-8-2-12-7t-8-17-8-40q-4-29-6-66t-4-107l-2-70-1-1-1-1v-1h-7v1h-1v71q0 70 3 118 3 49 3 58 2 8 2 14v5l-1 1-1 1v1h-7q-7 0-11-2-4 0-10-5-7-5-12-11t-8-14q-4-7-8-19t-16-64q-14-52-16-66t0-79v-67h-1v-1h-2v1h-1v1l-1 4q-1 4-1 8 0 3-4 46-2 43-9 49-6 7-18 12t-23 6-16-1-7-5q-3-2-3-11 0-10 3-14t17-20q15-14 21-24 7-9 13-23 8-14 14-41 8-28 12-48 4-19 8-24 4-6 13-16 10-10 21-18 11-10 24-22 12-13 20-24 6-12 11-17 4-5 13-17 8-10 18-24t17-19 29-17l21-12h2l1-1 1-1h3l1-1 1-1h2l19-8q19-8 29-12t12-5 0-5q0-4 8-16 10-11 16-17t14-16q8-9 17-16t18-12 14-7 19-1q13 1 20 3 8 4 9 4zm-112 174l1 1v7h-3v-1h-1v-3l-1-1-1-1v-2q0-1-2-4-2-4-8-8l-5-4-3-2q-2-1-2-3 0-1 4 0 5 1 9 5 5 3 8 8 3 6 4 8z" fill="#fdfdfd" stroke="#fdfdfd"/>
  <path d="m731 115v3q1 1 1 2h-1q-1 0-9-4-7-2-20-3-14-1-19 1t-14 7-18 12-17 16q-8 10-14 16t-16 17q-8 12-8 16 2 4 0 5t-12 5-29 12l-19 8h-2l-1 1-1 1h-2v-4h-1l2-1 2-1h2l2-1q1-1 2-2 0-1 16-7t17-8 6-6q6-5 19-20 14-16 16-18 3-2 2-3 0-1 3-3 2-1 4-4t3-3 5-6q5-5 9-9 5-3 5-4t7-5 16-9q9-6 15-7t20-1q14 2 22 4 7 2 7 3z" fill="#0c0c0c" stroke="#0c0c0c"/>
 </g>
</svg>
