<?xml version="1.0" encoding="UTF-8"?>
<svg viewBox="0 0 1000 1000" xmlns="http://www.w3.org/2000/svg">
 <g fill-rule="evenodd">
  <path d="m568 438h8q7 0 24 11t26 17q9 8 10 8h1v1h1v1h1v1h1v5l-1 1-1 1h-3l-1-1-2-1t-4-2-14-4q-9 0-12-2-3 0-20-13l-16-12-1-1-1-1v-3h-1v-1h1v-2q1-1 2-2t2-1z" fill="#f7f7f7" stroke="#f7f7f7"/>
  <path d="m430 154v1h1v1h1v1h1v1h1v1l-1 1-1 1h-2v2h-1l-1-1h-1v-1h-1v-1h-1t-14-12q-15-11-25-18-10-6-29-13t-29-9q-10 0-20 2l-10 2v-1l-1-1h-2l-1 1-1 1h-2v-2h3l2-1 1-1 1 1q2 0 8-2 7-1 6-2t4-2 4-1 12 2q13 2 18 2 4 0 6 2 1 0 0 1t0 1q2 1 2 0t10 2q9 4 9 6t1 2q2 1 2 0 1 0 5 1 4 2 3 3 0 2 6 3 5 2 4 3 0 2 7 5 7 4 7 5 0 2 2 1 2 0 4 3 2 2 3 4 0 2 4 4 5 2 5 2zm-115-49q0-1 0-1 1 0 1 0 0 1-1 1zm33 2q-2-1 0-1 3 0 4 1t-1 1-3-1zm14 6q0-1 2 0t0 1q-1 0-1-1-1 0-1 0zm5 2q0-1 0-1 1 0 1 0 0 1-1 1zm5 2q-3-1 0-1 2 0 2 1t-2 0zm10 5q0-1 2 0 2 2 0 1-2 0-2-1zm11 7q0-1 0-1 1 0 1 0 0 1-1 1zm2 1q0-1 1-1t1 1-1 1-1-1zm8 6q0-1 2 0 3 1 3 2t-2 0q-3-1-3-2zm6 4q0-1 1-1t1 1-1 1-1-1zm7 6q0-1 1-1t1 1-1 1-1-1zm9 8t0-1q1 0 1 1 0 0-1 0zm3 2q0-1 1 0 1 0 2 1 0 1-1 1-2-1-2-2z" fill="#0f0f0f" stroke="#0f0f0f"/>
  <path d="m0 500v-500h1e3v1e3h-1e3v-500zm430-346v1h1v1h1v1h1v1l4 4q3 4 5 5t1 2 2 2 3 2q-1 1 1 3 3 1 6 6 3 4 2 4-1 1 1 3 1 3 4 6 2 3 3 4 1 0 1 2 0 1 3 7 3 5 3 6 0 2 2 2 2 1 2 2 0 0 1 1t5 10q5 9 6 10 2 0 2 1t-2 1q-2 1 0 2t7 13 5 22q0 9 1 8t4 16q3 18 3 22v4-2q0-2-1-4l-1-2v6l2 2q1 2 2 3 2 2 1 2-1 1 7 3 9 3 9 5 0 1 1 1 2 0 5 0t15 4 16 5l5 1h3-13l2 1 2 1h8q8 0 21 2 14 2 18 3 5 1 6 1 2 0 0 1-1 1 1 1t5-1q3 0 3 1t-1 1q-1 1 6 1 8 2 19 5t11 5 2 2h6-1v1l4 1q4 0 3 0-2 0 3 0t5 2 6 2q6 1 6 2-1 2 1 1 2 0 5 3 2 2 3 3 1 0 1 3 0 2 1 1t1 1q1 2 4 3 2 1 6 8t5 8q0 1-1 1t0 1q2 1 4 1 1 1 3 4 3 3 5 7 2 5 4 8 1 3 0 3t1 2q3 1 5 9 4 8 4 11v2l-1-2-1-1v4l1 1v2l1-2q0-1 2 3t2 13q0 8 1 8 1-1 5 12 5 12 6 12 0 0 3 12 3 13 4 19t1 5q-2-2-2 0t1 2v2l1 1v-2l1 1 1 2v3l2 11q0 10 0 16v10l-1-4-1-4v6q0 6-1 11-1 6-3 10-2 3-4 4-2 0-1 1t-1 3q-1 1-2 1-2 0-2 3-2 3-6 9t-6 7q-2 0-1 1t-4 8q-4 6-5 8 0 1-2 1t-2 1-1 4q-1 2-6 12t-6 9-1 0q-1 1 0 2 1 0-2 9t-5 9q-1 0-1 1t0 2q0 2-1 1t-1 2q-1 3 0 3t-2 6q-2 7-4 9 0 2-1 5 0 2-1 2-2-1-6 4-5 4-8 6-4 2-6 2-3 0-2-1t-10-1q-11-2-12-2t0-1q0-1-2-2-3-1-6-2-2-1-4-2-2-2-2-3v-1h1v-1h-2v1h-1v1l-1-1-1-1v3l-2 7q-2 7-2 14v6l-1 2-1 2v3-14l-1 5-1 4v2q0 2 0 7v5-8 8q0 9-2 11 0 2-1 1t-1 2q0 2 0 5 0 2-1 2t-1 2q0 1 0 5 0 3-13 33t-16 37q-4 7-6 7-1 0-4 4t-4 5q-1 0-1-1-1-1-6 1-5 1-5 2t-7 0q-8 0-6 0 1 0-3 0-5 0-6-1t-3-1q1 0-2-2-4 0-2 0 1 2-2 0-3 0-3-2 0 0-1-1-2-1-2 0t-4 0-4-3-1-2-3-1l-1-1-1 1t1 1q2 0 0 0h-3q-1 0-1-1-1-1-2-2t-9-3-8-2q1 0-7-2-8 0-7-1 2-1 0-1-2-2-3-1t-1-1q-2-2-4-3-3-1-5-2-3 0-6-1-4 0-4-2 0 0-2-1-3-1-6-2-4-1-4-2-1-1-2-2t-5-3-2-2-4-2q-5-2-4-1t0 1q-2 0-6-3-3-2-3-3 1-1-2-2-2 0-2-1 1-1 0-3-1-1-4-2-3-2-7-2-4-1-4-3 0-1-5-3t-5-4-2-2q-1 0-4-6-4-6-7-16-4-10-5-11 0-1-1-1t-1-1-5-5q-4-4-5-7t-4-3q-2 0-5-3t-4-5-6-4q-4-2-5-5-2-2-4-3-2-2-5-6t-2-4-1-1q-3-1-6-7-4-7-3-7 1-1 0-1t-3-4q-2-3-2-22 0-18-3-26-3-7-2-7 1-1-1-2-1-1-2-3-1 0-6-9-4-8-5-11-1-4-1-6-1-2-2-4-2-1-4-6t-2-16q0-12 3-20t4-8q1 1 1 0 0-2 0-5t4-8q3-5 9-14 7-10 8-10 1-1 3-4t8-10q4-7 7-9 2-2 3-3 0-1 1-7t1-16q0-9-1-18t-2-8q-1 0-3-4-2-5-4-6t-16-19q-13-17-14-20 0-3-2-3-2-1-2-4 0-2-2-2-3-1-6-6-2-4-4-9-2-4-4-5 0-2-2-3t-4-7q-3-5-5-6-1 0-2-4-1-5-3-6-3 0-6-5-2-4-3-8t-2-5q-1-2-3-4t-2-6q-2-4-3-4-1 1-2-4-1-6-1-6 0-1 0-1-2 0-4-9l-2-8v-5 2q0 2 1 3l1 1v-3l-1-2q-1-2-1-5-2-3-2-1 0 1-1 0t-1-7 0-4 0-5v-7 7-4q0-4 0-5t1-15l1-15v-3 17l1-5 1-4v-4q0-3 2-8v-10 2q0 2-1 4l-1 3v-3q0-4 2-9v-5l1-2 1-1v2q0 2 0 5v2-4l1-1v-2l1-1v-2q0-2-1-1t-1-1q0-1 3-9 2-9 3-8 0 1 1-1 0-2 1-7 0-5 2-11 2-5 3-4t2-3q1-3 1-5t3-8q3-7 5-7t1-1q-1 0 1-4t6-10q5-6 8-6 2 0 3-3t6-5q4-3 4-2 1 1 1 0l1-2v-2h3l2-1 1-1 1 1q2 0 8-2 7-1 6-2t4-2 4-1 12 2q13 2 18 2 4 0 6 2 1 0 0 1t0 1q2 1 2 0t10 2q9 4 9 6t1 2q2 1 2 0 1 0 5 1 4 2 3 3 0 2 6 3 5 2 4 3 0 2 7 5 7 4 7 5 0 2 2 1 2 0 4 3 2 2 3 4 0 2 4 4 5 2 5 2z" fill="#fefefe" stroke="#fefefe"/>
  <path d="m434 160v-1l3 3q3 3 3 4 0 0 2 2 2 0 1 1t2 2 3 2q-1 1 1 3 3 1 6 6 3 4 2 4-1 1 1 3 1 3 4 6 2 3 3 4 1 0 1 2 0 1 3 7 3 5 3 6 0 2 2 2 2 1 2 2 0 0 1 1t5 10q5 9 6 10 2 0 2 1t-2 1q-2 1 0 2t7 13 5 22q0 9 1 8t4 16q3 18 3 22v4-2q0-2-1-4l-1-2v6l2 2q1 2 2 3 2 2 1 2-1 1 7 3 9 3 9 5 0 1 1 1 2 0 5 0t15 4 16 5l5 1h3-13l2 1 2 1h8q8 0 21 2 14 2 18 3 5 1 6 1 2 0 0 1-1 1 1 1t5-1q3 0 3 1t-1 1q-1 1 6 1 8 2 19 5t11 5 2 2h6-1v2h1v1h-1v1h-1l-2 1h-4q-2-1-12-4-11-3-27-7t-45-8q-28-4-42-9-13-5-38-19-26-16-34-21l-8-6v-1h-1v-1h-1v-1h-1v-1h-1v-1l-1-2v-1h1l1 1h2v1h1v1h2v1l6 3q6 4 16 9 9 5 10 6l2 1h1l1-1 2-1h1v-1h1v-5q0-4-3-26t-9-35-12-24-10-19q-4-7-8-16-6-8-13-18l-7-9h-1v-1h-1v-1h-1v-1q-1 0-1 0v-3h2l1-1q1 0 1 0zm1 3q0-1 1-1 2 1 2 2t-1 0q-1 0-2-1zm16 18q0-1 2 0 1 1 2 2 0 1-2 0-1-1-2-2zm8 14q0-1 0-1 1 0 1 0 0 1-1 1zm1 2q0-1 0-1 0 1 0 1zm1 3q1-2 1 0 1 1 0 1t-1-1zm4 6q-2-4 0-2 1 1 3 4 1 2 0 2t-3-4zm4 6t0-1q1 0 1 1 0 0-1 0zm1 2t0-1 0 1zm3 5q0-1 0-1 1 0 1 0 0 1-1 1zm1 2q0-1 1-1t1 1-1 1-1-1zm8 11q0-1 0-1 0 1 0 1t0 2q0 1 0 0t0-2zm1 5q0-1 0-1 1 0 1 0 0 1-1 1zm1 2q0-1 0-1 0 1 0 1zm4 6q0-1 0-1 0 1 0 1zm2 2q-1-1 0-1t0 1q0 1 0 0zm2 6q-1-3 0-3t1 3q1 3-1 0zm2 7t0-1 0 1zm2 2q0-1 1 5t1 5q0-2-1-4-1-1-1-2 0-2 0-4zm4 28q0-2 1-2 0 0 0 1 1 0 1 3t-1 1-1-3zm2 8q0-2 1 0t1 4q0 3-1 1t-1-5zm2 14q0-4 1-2 1 3 1 6 0 2-1 0-1-1-1-4zm13 26t0-1q1 0 1 1 0 0-1 0zm5 2q-3-2 0-1 2 0 2 1t-2 0zm11 4q-1 0 1 0 3 0 2 0-2 0-3 0zm24 7l1 1-10-3q-10-2-10-3t9 2q9 2 10 3zm51 9t2 0q3 0 1 0t-2 0q-1 0-1 0zm24 6q-1 0 1 0t1 0-2 0zm5 2t0-1q1 0 1 1 0 0-1 0zm4 1q0-1 3 1 4 0 3 0t-3 0-2-1-1 0zm12 4q-4-1 0-1t4 1-4 0z" fill="#0c0c0c" stroke="#0c0c0c"/>
  <path d="m297 111h1v1l-8 6q-8 5-14 10-4 5-12 18-8 14-14 38-8 24-8 26v2l-1 3-1 3v-7l-1 1-1 1v1h-1v-1l1-1v-2q0-2-1-1t-1-1q0-1 3-9 2-9 3-8 0 1 1-1 0-2 1-7 0-5 2-11 2-5 3-4t2-3q1-3 1-5t3-8q3-7 5-7t1-1q-1 0 1-4t6-10q5-6 8-6 2 0 3-3t6-5q4-3 4-2 1 1 1 0l1-2h1q1 0 2 0 2 0 3-1zm-10 5t0-1q1 0 1 1 0 0-1 0zm-2 0q1 0 1 1t-2 1q-1 1 0 0 0-2 1-2zm-13 11q1 0 1 1-1 1-2 2-1 0-1-1 1-1 2-2zm-4 5q1 0 0 2-1 3-2 3t0-2q1-3 2-3zm-4 7q0-1 0-1 0 1 0 1zm-1 2q0-1 0-1 1 0 1 0 0 1-1 1zm-5 8q1 0 0 3-2 4-2 0 1-3 2-3zm-5 10q0-1 0-1 1 0 1 0 0 1-1 1zm-7 19q1-7 2-7t-1 7q-1 6-1 0zm-2 8t0-1 0 1zm-3 8q1 0-1 6t-1 0 2-6z" fill="#151515" stroke="#151515"/>
  <path d="m235 212l1-1v2q0 2 0 5v2-4l1-1v-1h1v-1l1-1 1-1v7l-2 16q-2 15-2 33t5 35q5 16 9 24 4 9 11 21 7 13 12 20 5 8 8 11t11 13q7 11 14 19 7 10 16 20 8 12 8 12h1l1 1 1 1h3v-1h1v-1h1l6-10q7-10 24-26t28-19q10-3 21-7 11-2 25-8 15-6 22-10 7-2 10-4 4 0 8-1l4-1h6v3h-1v1h-2l-1 1-1 1-11 2q-12 4-19 8t-19 9-28 9q-17 4-24 9-6 5-11 11t-11 10q-5 4-10 13-6 8-7 14t-1 15q0 10 2 16 2 5 1 18-1 14-3 22-4 7-11 18-7 12-20 32t-14 27-1 14 10 25q10 19 15 28 5 8 7 32t6 31q5 7 16 15 11 10 16 13t10 9q6 6 14 22t14 20q5 4 11 9t10 7 19 10q14 8 32 16 17 8 32 14 14 5 25 10 11 6 23 7 11 1 15-1 5-2 13-18 8-17 9-18l1-2v-5h-5q-5 1-7 1-3 0-16 2-14 0-24-1-11-1-25-5t-33-11q-18-8-51-20l-33-11v-1l-1-1-1-1v-9h1v-1h1v-1h7q6 0 22 6t33 12q16 6 32 12t38 12 36 5q15-1 23-6 9-6 12-11 3-6 7-20 4-13 6-24t2-17v-7h-3v1h-1v1l-1 1-1 1t-2 2-12 6q-10 6-26 6-17 0-26-2-8-2-21-6-13-6-27-12t-40-16-36-14-24-10-18-10l-5-2v-1h-1v-9h1l1-1 1-1h3l2 1q1 1 26 11t48 19q24 9 40 16 15 7 30 14t26 9q10 2 22 2 13 0 22-4t14-13q4-9 7-20t3-27q0-15 0-18-2-4-4-7-3-3-8-1-4 2-14 2t-14 0q-5-2-18-6-14-4-28-12-13-8-25-15-13-8-30-18-18-11-30-20-13-10-21-17l-9-6v-1h-1v-1l-1-1-1-1v-5h1v-1h8l8 6q9 5 13 10 5 4 12 10 8 6 13 9 5 2 21 11 15 10 33 20 18 12 33 17 14 5 22 7 7 2 14 2t12-4q6-4 13-11t13-19 15-45 8-41-4-13q-4-5-17-13-12-8-12-8h-1v-1h-1v-1h-6v4q0 3 2 6 2 2 2 3v7h-5v-1h-1v-1h-1v-1h-1v-1t-4-4q-2-3-12-12-10-10-21-19-12-9-28-21-17-13-30-20-13-8-29-12l-17-4h-3l-1-1-1-1-1-2v-1h1l2 1 16 1q15 1 34 11 20 9 24 12 4 4 10 4 5 0 8-2 2 0 12 0 11 0 28 11 18 11 29 20t18 17q7 9 11 20 6 11 6 24 0 14-6 40-6 27-14 46-6 20-9 41t-2 35 3 20q2 5 8 14 6 10 13 13t15 3q9 0 14-5 4-5 12-20t14-27q4-11 12-22 8-12 22-34t16-34q2-11 2-16t0-10v-13l1-1v-1h2v1l1 1v-2l1 1 1 2v3l2 11q0 10 0 16v10l-1-4-1-4v6q0 6-1 11-1 6-3 10-2 3-4 4-2 0-1 1t-1 3q-1 1-2 1-2 0-2 3-2 3-6 9t-6 7q-2 0-1 1t-4 8q-4 6-5 8 0 1-2 1t-2 1-1 4q-1 2-6 12t-6 9-1 0q-1 1 0 2 1 0-2 9t-5 9q-1 0-1 1t0 2q0 2-1 1t-1 2q-1 3 0 3t-2 6q-2 7-4 9 0 2-1 5 0 2-1 2-2-1-6 4-5 4-8 6-4 2-6 2-3 0-2-1t-10-1q-11-2-12-2t0-1q0-1-2-2-3-1-6-2-2-1-4-2-2-2-2-3v-1h1v-1h-2v1h-1v1l-1-1-1-1v3l-2 7q-2 7-2 14v6l-1 2-1 2v3-14l-1 5-1 4v2q0 2 0 7v5-8 8q0 9-2 11 0 2-1 1t-1 2q0 2 0 5 0 2-1 2t-1 2q0 1 0 5 0 3-13 33t-16 37q-4 7-6 7-1 0-4 4t-4 5q-1 0-1-1-1-1-6 1-5 1-5 2t-7 0q-8 0-6 0 1 0-3 0-5 0-6-1t-3-1q1 0-2-2-4 0-2 0 1 2-2 0-3 0-3-2 0 0-1-1-2-1-2 0t-4 0-4-3-1-2-3-1l-1-1-1 1t1 1q2 0 0 0h-3q-1 0-1-1-1-1-2-2t-9-3-8-2q1 0-7-2-8 0-7-1 2-1 0-1-2-2-3-1t-1-1q-2-2-4-3-3-1-5-2-3 0-6-1-4 0-4-2 0 0-2-1-3-1-6-2-4-1-4-2-1-1-2-2t-5-3-2-2-4-2q-5-2-4-1t0 1q-2 0-6-3-3-2-3-3 1-1-2-2-2 0-2-1 1-1 0-3-1-1-4-2-3-2-7-2-4-1-4-3 0-1-5-3t-5-4-2-2q-1 0-4-6-4-6-7-16-4-10-5-11 0-1-1-1t-1-1-5-5q-4-4-5-7t-4-3q-2 0-5-3t-4-5-6-4q-4-2-5-5-2-2-4-3-2-2-5-6t-2-4-1-1q-3-1-6-7-4-7-3-7 1-1 0-1t-3-4q-2-3-2-22 0-18-3-26-3-7-2-7 1-1-1-2-1-1-2-3-1 0-6-9-4-8-5-11-1-4-1-6-1-2-2-4-2-1-4-6t-2-16q0-12 3-20t4-8q1 1 1 0 0-2 0-5t4-8q3-5 9-14 7-10 8-10 1-1 3-4t8-10q4-7 7-9 2-2 3-3 0-1 1-7t1-16q0-9-1-18t-2-8q-1 0-3-4-2-5-4-6t-16-19q-13-17-14-20 0-3-2-3-2-1-2-4 0-2-2-2-3-1-6-6-2-4-4-9-2-4-4-5 0-2-2-3t-4-7q-3-5-5-6-1 0-2-4-1-5-3-6-3 0-6-5-2-4-3-8t-2-5q-1-2-3-4t-2-6q-2-4-3-4-1 1-2-4-1-6-1-6 0-1 0-1-2 0-4-9l-2-8v-5 2q0 2 1 3l1 1v-3l-1-2q-1-2-1-5-2-3-2-1 0 1-1 0t-1-7 0-4 0-5v-7 7-4q0-4 0-5t1-15l1-15v-3 17l1-5 1-4v-4q0-3 2-8v-10 2q0 2-1 4l-1 3v-3q0-4 2-9v-5l1-2zm1 105v-1l-1-4q-1-5 0-4 1 2 1 4t0 4q0 1 0 1zm3 8q1 0 1 0 0 1 0 1-1 0-1-1zm5 11q0-1 1-1t1 1q-1 2-2 0zm2 3t1 0q0 1-1 1 0 0 0-1zm1 2q1 0 1 0 0 1 0 1-1 0-1-1zm6 13q1 0 1 0-1 0-1 0zm1 3q0-1 1-1t1 1-1 1-1-1zm3 4q0-1 1-1t1 1-1 1-1-1zm7 10t1 0q0 1-1 1 0 0 0-1zm5 6q1 0 1 0 0 1 0 1-1 0-1-1zm1 2t1 0q0 1-1 1 0 0 0-1zm3 4q1 0 1 0 0 1 0 1-1 0-1-1zm6 9q1 0 1 0-1 0-1 0zm1 3q0-1 1-1 1 1 2 2 0 1-1 0-2 0-2-1zm4 6q0-2 1-2t1 2q1 2 0 2t-2-2zm3 3q1 0 1 0-1 0-1 0zm1 2t1 0-1 0zm9 13q0-1 1-1t1 1-1 1-1-1zm4 5q0-1 1 0 2 0 2 1t-1 1q-1-1-2-2zm3 4q0-1 1-1t1 1-1 1-1-1zm4 5q0-1 1-1t1 1-1 1-1-1zm4 6q0-2 1-2t1 2q1 2 0 2t-2-2zm256-1h8q7 0 24 11t26 17q9 8 10 8h1v1h1v1h1v1h1v5l-1 1-1 1h-3l-1-1-2-1t-4-2-14-4q-9 0-12-2-3 0-20-13l-16-12-1-1-1-1v-3h-1v-1h1v-2q1-1 2-2t2-1zm-253 5q0-1 1-1t1 1-1 1-1-1zm4 5q0-1 1 0 2 0 2 1t-1 1q-1-1-2-2zm5 6q0-1 1 0 1 0 2 1 0 1-1 1-2-1-2-2zm6 6t1 0-1 0zm2 3q-1-1 0-1t0 1q0 1 0 0zm7 27l1 7-1 3q-1 2-2-12t0-10 2 12zm-2 14q1-1 1 1t-1 3-1-1 1-3zm-6 17q1 0 1 1t-1 1-1-1 1-1zm-2 3q1 0 1 2-1 2-2 2t0-2q0-2 1-2zm-3 5q1 0 1 1t-1 1-1-1 1-1zm-2 3q1 0 1 1t-1 1-1-1 1-1zm-3 4q1 0 1 1t-2 1q-1 1 0 0 0-2 1-2zm-8 8q1 0 1 1t-1 1-1-1 1-1zm-2 3q1 0 1 0 0 1 0 1-1 0-1-1zm-1 2t1 0q0 1-1 1 0 0 0-1zm-1 2q1 0 1 1t-1 1-1-1 1-1zm-2 3q1 0 1 1t-1 1-1-1 1-1zm-2 3q1 0 1 1t-2 2q-1 0 0-1 0-1 1-2zm465 3q0-3 1-2 1 2 1 5t-1 1-1-4zm-469 2q1 0 1 1t-2 3q-2 1-1-2 1-2 2-2zm-5 7t1 0q0 1-1 1 0 0 0-1zm-1 2q1 0 1 2-1 2-2 2t0-2q0-2 1-2zm-8 35l-1 10 1 4q0 4 0 3h-1v-3q0-2-1-6t2-18q2-13 3-13t-1 6q-1 6-2 17zm480 8l-1 3 2-6q2-6 2-7t0 4q-2 4-3 6zm-478 12q1 0 1 0-1 0-1 0zm1 2t1 0-1 0zm464 1q1 0 1 1-1 1-2 2-2 1-1-1 1-1 2-2zm-460 10q-1-1 0-1t0 1q0 1 0 0zm454-1q1 0 1 1t-1 1-1-1 1-1zm-453 4q1 0 1 0-1 0-1 0zm2 6q-1-4 1 0 2 3 1 3t-2-3zm445-1q1 0 0 3-2 3-4 6-3 2 0-4 3-5 4-5zm-442 5t1 0-1 0zm1 3q0-1 1-1t1 1-1 1-1-1zm3 3t1 0-1 0zm6 10q0-2 0-1t0 3q0 1 0 1 0-1 0-1t0-2zm418 0t0-1 0 1zm-4 8q3-6 3-5 1 1-2 6t-4 5 3-6zm-411 20l1 22-1-14q-1-14-1-22 0-7 1 14zm403-4t0-1 0 1zm-1 3q0-1 0-1 1 0 1 0 0 1-1 1zm-1 2t-1 3q-1 4 0 0t1-4 0 1zm-10 26q2-5 1-1-1 5-3 6-1 0 2-5zm-385 4q1 0 1 0 0 1 0 1-1 0-1-1zm1 4q0-2 1-2t1 2q1 2 0 2t-2-2zm375 7q3-6 3-3-2 3-4 5-3 3 1-2zm-371-2q0-1 1-1t1 1-1 1-1-1zm324 3t1 0q0 1-1 1 0 0 0-1zm-15 13l-1 3 1-5q1-5 1-2 0 2-1 4zm-303-8q0-1 1-1t1 1-1 1-1-1zm358 0t1 0-1 0zm-2 1t1 0q0 1-1 1 0 0 0-1zm-2 1t1 0-1 0zm-342 10q-2-2 0-1 3 0 3 1t-3 0zm22 18q0-1 1-1t1 1-1 1-1-1zm6 6q0-1 1-1t1 1-1 1-1-1zm258 4q0-2 0 2 0 3 0 2 0-2 0-4zm-255-1q1 0 1 0 0 1 0 1-1 0-1-1zm5 11q0-1 2 4 2 4 1 4 0 0 0-1-1 0-1-1 0-2-1-3t-1-3zm4 9t1 0q0 1-1 1 0 0 0-1zm1 2q1 0 1 0 0 1 0 1-1 0-1-1zm1 2t1 0q0 1-1 1 0 0 0-1zm238 0t0 3q-2 4-2 2 0-1 1-2 1-2 1-2t0-1zm-3 8q1 0 1 0 0 1 0 1-1 0-1-1zm-230 1q1 0 1 0-1 0-1 0zm225 16h-1l3-8q2-7 1 0-2 8-3 8zm-220-9q0-1 2 0 1 1 0 1t-1-1q-1 0-1 0zm4 1t1 0-1 0zm7 6q0-1 1-1t1 1-1 1-1-1zm207 3t-1 5q-1 4-1 2 0-1 0-2t1-2q1-2 1-2t0-1zm-189 8q1 0 1 0 0 1 0 1-1 0-1-1zm183 10q2-8 0-1-2 8-3 8-1 1 3-7zm-180-7t1 0-1 0zm16 7t1 0q0 1-1 1 0 0 0-1zm8 7q-1 0 0-1 2 0 2 1t-2 0zm150 5t1 0q0 1-1 1 0 0 0-1zm-7 15l-1-2 3-6q3-5 4-5t-3 7q-3 8-3 6zm-10 10q1 0 1 0-1 0-1 0zm-2 3q1 0 1 0 0 1 0 1-1 0-1-1z" fill="#070707" stroke="#070707"/>
  <path d="m425 160h1v1h1v1h1l1 1h1v1t1 0v1h1v1h1v1h1l7 9q7 10 13 18 4 9 8 16 4 8 10 19t12 24 9 35 3 26v5h-1v1h-1l-2 1-1 1h-1l-2-1q-1-1-10-6-10-5-16-9l-6-3v-1h-2v-1h-1v-1h-2l-1-1h-1v1l1 2v1h1v1h1v1h1v1h1v1l8 6q8 5 34 21 25 14 38 19 14 5 42 9 29 4 45 8t27 7q10 3 12 4h3q0 1 1 1h2l10 2q9 2 16 7t12 13q6 8 17 26 11 17 15 26 4 8 5 9l1 1v7l9 33q9 33 11 40 2 8 2 10v1l1 3 1 4v4q0 5 0 10t-2 16q-2 12-16 34t-22 34q-8 11-12 22-6 12-14 27t-12 20q-5 5-14 5-8 0-15-3t-13-13q-6-9-8-14-2-6-3-20t2-35 9-41q8-19 14-46 6-26 6-40 0-13-6-24-4-11-11-20-7-8-18-17t-29-20q-17-11-28-11-10 0-12 0-3 2-8 2-6 0-10-4-4-3-24-12-19-10-34-11l-16-1-2-1h-1v1l1 2 1 1 1 1h3l17 4q16 4 29 12 13 7 30 20 16 12 28 21 11 9 21 19 10 9 12 12 4 4 4 4v1h1v1h1v1h1v1h5v-7q0-1-2-3-2-3-2-6v-4h6v1h1v1h1t12 8q13 8 17 13 3 5 4 13t-8 41-15 45-13 19-13 11q-5 4-12 4t-14-2q-8-2-22-7-15-5-33-17-18-10-33-20-16-9-21-11-5-3-13-9-7-6-12-10-4-5-13-10l-8-6h-8v1h-1v5l1 1 1 1v1h1v1l9 6q8 7 21 17 12 9 30 20 17 10 30 18 12 7 25 15 14 8 28 12 13 4 18 6 4 0 14 0t14-2q5-2 8 1 2 3 4 7 0 3 0 18 0 16-3 27t-7 20q-5 9-14 13t-22 4q-12 0-22-2-11-2-26-9t-30-14q-16-7-40-16-23-9-48-19t-26-11l-2-1h-3l-1 1-1 1h-1v9h1v1l5 2q4 4 18 10t24 10 36 14 40 16 27 12q13 4 21 6 9 2 26 2 16 0 26-6 10-4 12-6t2-2l1-1 1-1v-1h1v-1h3v7q0 6-2 17t-6 24q-4 14-7 20-3 5-12 11-8 5-23 6-14 1-36-5t-38-12-32-12q-17-6-33-12t-22-6h-7v1h-1v1h-1v9l1 1 1 1v1l33 11q33 12 51 20 19 7 33 11t25 5q10 1 24 1 13-2 16-2 2 0 7-1h5v5l-1 2q-1 1-9 18-8 16-13 18-4 2-15 1-12-1-23-7-11-5-25-10-15-6-32-14-18-8-32-16-15-8-19-10t-10-7-11-9q-6-4-14-20t-14-22q-5-6-10-9t-16-13q-11-8-16-15-4-7-6-31t-7-32q-5-9-15-28-10-18-10-25t1-14 14-27 20-32q7-11 11-18 2-8 3-22 1-13-1-18-2-6-2-16 0-9 1-15t7-14q5-9 10-13 6-4 11-10t11-11q7-5 24-9 16-4 28-9t19-9 19-8l11-2 1-1 1-1h2v-1h1v-3h-6l-4 1q-4 1-8 1-3 2-10 4-7 4-22 10-14 6-25 8-11 4-21 7-11 3-28 19t-24 26l-6 10h-1v1h-1v1h-3l-1-1-1-1h-1t-8-12q-9-10-16-20-7-8-14-19-8-10-11-13t-8-11q-5-7-12-20-7-12-11-21-4-8-9-24-5-17-5-35t2-33l2-16 1-3 1-3v-2q0-2 8-26 6-24 14-38 8-13 12-18 6-5 14-10l8-6 10-2q10-2 20-2 10 2 29 9t29 13q10 7 25 18 14 12 14 12z" fill="#fdfdfd" stroke="#fdfdfd"/>
  <path d="m667 377l4 1q4 0 3 0-2 0 3 0t5 2 6 2q6 1 6 2-1 2 1 1 2 0 5 3 2 2 3 3 1 0 1 3 0 2 1 1t1 1q1 2 4 3 2 1 6 8t5 8q0 1-1 1t0 1q2 1 4 1 1 1 3 4 3 3 5 7 2 5 4 8 1 3 0 3t1 2q3 1 5 9 4 8 4 11v2l-1-2-1-1v4l1 1v2h-1v1h-1v-1h-1v-2l-1-1q-1-1-5-9-4-9-15-26-11-18-17-26-5-8-12-13t-16-7l-10-2h-2q-1 0-1-1h1l2-1h1v-1h1v-1h-1v-1zm22 7q-3-2 0-1 3 0 3 1t-3 0zm9 6q0-1 1 0 1 0 2 1 0 1-1 1-2-1-2-2zm12 12t0-1 0 1zm7 9q-2-4-1-4t2 4q0 4-1 0zm6 11t0-1q1 0 1 1 0 0-1 0zm3 4q-2-3 0-1t3 3q0 1-1 1t-2-3zm5 8q0-1 1-1t1 1-1 1-1-1zm2 3q0-1 0-1 1 0 1 0 0 1-1 1zm1 2q0-1 0-1 0 1 0 1zm3 5t0-1q1 0 1 1 0 0-1 0zm1 2t0-1 0 1zm2 2q-1-1 0-1t0 1q0 2 0 0zm2 8q0-2 1-1t1 3-1 0q-1-1-1-2z" fill="#101010" stroke="#101010"/>
  <path d="m769 552v1h-2v1l-1 1v9l-1-4-1-3v-1q0-2-2-10-2-7-11-40l-9-33v-5h1v1h1v-1h1l1-2q0-1 2 3t2 13q0 8 1 8 1-1 5 12 5 12 6 12 0 0 3 12 3 13 4 19t1 5q-2-2-2 0t1 2zm-21-78q0-1 0-1 0 1 0 1t0 2q0 3 0 2 0-2 0-4zm2 18t0-1 0 1zm4 10q-2-5 0-3 0 2 0 5 0 2 0-2zm1 6t0-1q1 0 1 1 0 0-1 0zm1 2t0-1 0 1zm1 2t0-1q1 0 1 1 0 0-1 0zm1 2q0-1 1-1 0 1 0 1 1 0 1 2t-1 1-1-3zm4 10q-2-5 0-3 0 2 0 5 0 2 0-2zm4 16q0-2 0 2 1 4 1 3-1 0-1-1 0-2 0-4z" fill="#0f0f0f" stroke="#0f0f0f"/>
 </g>
</svg>
