<?xml version="1.0" standalone="no"?><!DOCTYPE svg PUBLIC "-//W3C//DTD SVG 1.1//EN" "http://www.w3.org/Graphics/SVG/1.1/DTD/svg11.dtd"><svg t="1728007782824" class="icon" viewBox="0 0 1024 1024" version="1.1" xmlns="http://www.w3.org/2000/svg" p-id="3124" xmlns:xlink="http://www.w3.org/1999/xlink" width="200" height="200"><path d="M405.480296 1019.813926v-217.287111l-241.360592-17.588148C105.91763 655.502222 68.356741 517.191111 65.118815 364.136296l83.702518-50.152296V65.507556l205.255111-24.016593 72.794075-18.147556 177.578666 29.013334 8.504889 68.645926 173.174519 21.888 22.106074 50.427259 152.746666 92.273778-82.887111 199.964444-13.771852 45.994667-16.497777 235.837629-163.223704 35.138371-4.442074 208.099555-274.678519 9.187556z" fill="#ffffff" p-id="3125"></path><path d="M360.922074 25.865481c12.586667-9.841778 26.605037-18.872889 40.139852-22.300444 31.905185-8.078222 136.685037-1.317926 183.272296 9.211259 18.446222 4.167111 30.008889 11.316148 33.697185 15.772445 6.33363 7.642074 10.055111 17.336889 11.624297 27.932444 1.536 10.396444 0.839111 21.812148 0.801185 30.814815-0.004741 2.318222 0.052148 5.788444 0.161185 10.244741 39.755852 1.678222 79.791407 9.367704 119.224889 14.170074 7.011556 0.853333 23.205926 1.152 34.87763 4.598518 10.216296 3.015111 18.038519 8.438519 22.622814 14.753186 2.474667 3.413333 5.082074 8.813037 6.433186 16.455111 0.986074 5.56563 1.464889 13.392593 1.398518 22.983111 43.320889 8.732444 124.61037 54.72237 153.187556 83.470222 15.051852 15.137185 17.621333 30.501926 15.36474 39.035259-3.868444 14.634667-29.748148 92.577185-53.522963 146.664297-11.496296 26.154667-23.22963 46.985481-31.687111 55.518814-1.607111 1.621333-4.446815 3.944296-8.860444 5.850074 0.436148 2.270815 0.545185 4.641185 0.279704 7.058963-4.475259 40.808296-5.608296 144.009481-10.998519 209.976889-1.754074 21.466074-4.039111 39.281778-6.840889 50.564741-1.957926 7.87437-4.532148 13.624889-6.893037 17.208889-2.280296 3.451259-6.125037 7.476148-12.634074 10.382222-4.181333 1.863111-11.259259 3.726222-20.555852 5.010963-21.869037 3.019852-60.918519 4.375704-93.496889 8.685037-12.553481 1.659259-24.059259 3.086222-31.857777 5.968593-0.256 24.362667-1.488593 136.865185-2.645334 174.250666a23.713185 23.713185 0 0 1-24.429037 22.959408 23.717926 23.717926 0 0 1-22.959407-24.424297c1.194667-38.580148-1.901037-132.731259 1.668741-172.600888 1.071407-11.97037 3.299556-20.532148 5.31437-24.666074 2.327704-4.773926 5.290667-7.850667 7.940741-9.879704 9.642667-7.409778 27.918222-13.492148 50.176-17.066667 32.080593-5.153185 85.513481-9.595259 104.647111-11.088592 1.592889-8.988444 4.129185-24.685037 5.31437-39.16326 5.229037-63.966815 6.528-162.711704 10.642963-206.549333l-2.597926 0.146963c-27.619556 1.531259-60.065185 1.867852-73.585778 0.782222-10.055111-0.810667-16.056889-4.119704-17.972148-5.508741-7.035259-5.110519-12.207407-12.16-15.952592-20.347259a122.974815 122.974815 0 0 1-11.96563 0.521482c-21.688889-0.06163-51.271111-4.698074-76.269037-13.952-12.060444-4.461037-23.044741-10.083556-32.06163-16.578371-11.245037 9.168593-24.528593 16.004741-38.921481 21.029926-18.901333 6.59437-39.789037 10.002963-59.249778 12.487111 16.545185 47.616 13.814519 84.200296 5.816889 143.473778a23.713185 23.713185 0 0 1-26.661926 20.318815 23.713185 23.713185 0 0 1-20.318815-26.661926c7.879111-58.396444 10.856296-90.936889-11.885037-142.250667-0.365037 0.156444-0.739556 0.308148-1.114074 0.459852-46.682074 18.858667-154.808889 43.410963-199.523555 51.252148a23.713185 23.713185 0 0 1-27.444149-19.252148 23.708444 23.708444 0 0 1 19.252149-27.439407c37.451852-6.570667 121.396148-25.258667 171.728592-41.927111 11.382519-3.768889 24.064-9.519407 28.690963-11.676445 1.735111-5.404444 2.403556-13.691259 3.000889-23.414518 1.412741-23.087407-0.156444-52.897185-4.679111-79.397926-2.379852-13.942519-5.541926-26.936889-9.66637-37.314371-2.313481-5.82637-3.854222-10.970074-7.149038-12.965926-7.727407-4.66963-16.658963-5.285926-25.66637-5.153185-13.070222 0.19437-26.415407 2.346667-38.755555 3.209482-76.231111 5.333333-140.036741 26.808889-209.697186 57.585778l-0.810666 0.360296-0.687408 0.308148c-19.787852 8.950519-50.161778 26.529185-71.627852 40.850963-0.175407 9.059556-0.459852 41.685333 3.418075 70.921481 10.325333 77.805037 35.887407 189.534815 63.29837 263.087408 9.424593 25.28237 18.517333 45.819259 27.619555 57.419852 6.641778 0.919704 25.718519 3.399111 42.496 4.266666 54.769778 2.834963 134.760296 2.706963 168.220445 4.641186 14.241185 0.820148 23.243852 3.626667 25.675852 5.020444 3.470222 1.995852 7.215407 5.176889 10.140444 10.453333 2.389333 4.304593 5.034667 13.553778 5.930667 26.699852 2.811259 41.381926-4.318815 140.553481-4.171852 179.588741a23.717926 23.717926 0 0 1-23.61363 23.793778 23.717926 23.717926 0 0 1-23.793777-23.61363c-0.132741-35.38963 2.218667-140.975407 3.000888-174.876444-34.550519-1.749333-111.03763-1.630815-163.84-4.361482-26.202074-1.355852-47.184593-3.721481-56.737185-6.736592-7.22963-2.280296-11.780741-5.703111-14.373926-8.400593-14.65837-15.284148-31.236741-48.867556-46.260148-92.017778C71.262815 619.700148 42.628741 480.967111 38.428444 408.395852c-1.232593-21.352296-0.128-37.807407 2.631112-47.369482 2.944-10.206815 8.263111-16.388741 13.288296-19.854222 19.299556-13.321481 47.753481-30.279111 70.385778-41.851259-1.564444-56.561778-5.290667-161.739852-2.996149-210.204445 0.938667-19.830519 4.80237-32.914963 7.352889-36.750222 3.095704-4.641185 8.661333-9.827556 17.436445-13.838222 9.91763-4.532148 26.486519-8.576 46.293333-11.572148 53.138963-8.026074 131.707259-10.107259 149.475556-8.718222 8.504889 0.658963 13.307259 3.51763 14.838518 4.551111 1.237333 0.83437 2.517333 1.848889 3.787852 3.07674z m451.105185 192.512c-7.130074 69.560889-24.670815 169.53837-35.124148 215.855408a263.708444 263.708444 0 0 1-4.987259 19.034074c0.426667 1.332148 0.853333 2.678519 1.294222 4.024889 0.336593 1.038222 0.877037 2.394074 1.431704 3.674074l93.852444-3.707259c5.371259-7.831704 11.510519-21.18637 18.313482-36.664889 19.754667-44.942222 41.102222-107.145481 48.687407-131.569778-6.409481-5.774222-21.707852-19.114667-35.896889-28.197926-28.050963-17.953185-63.232-36.067556-87.570963-42.448593zM498.887111 440.334222c15.317333-1.768296 32.033185-3.892148 47.848296-8.092444 14.824296-3.934815 28.99437-9.490963 39.077926-19.712 0.606815-4.475259 2.090667-16.213333 2.569482-26.993778 3.702519-82.88237-5.432889-271.051852-5.328593-298.420148 0.018963-6.072889 0.587852-13.50163 0.033185-20.683852-0.137481-1.739852-0.080593-3.541333-0.421926-5.12-31.881481-10.571852-139.392-19.531852-169.965037-11.790222-13.397333 3.39437-26.571852 15.886222-37.285925 25.879703 3.119407 42.168889 1.526519 110.895407 1.905777 153.818075 9.851259-0.990815 20.058074-2.176 30.108445-2.322963 18.000593-0.270222 35.479704 2.659556 50.910815 11.994074 8.448 5.115259 16.649481 14.478222 23.082666 27.823407 6.84563 14.193778 12.283259 33.701926 15.924148 55.044741 6.030222 35.337481 7.329185 75.828148 4.133926 103.253333a143.715556 143.715556 0 0 1-2.593185 15.322074z m133.252741-295.272296c2.403556 70.172444 6.257778 183.220148 3.602963 242.588444a371.712 371.712 0 0 1-1.545482 21.878519l0.009482 0.014222c10.059852 11.58163 31.113481 18.176 51.204741 22.343111 14.464 3.00563 33.137778 3.13363 42.405925 2.967704l0.033186-0.042667c1.588148-6.21037 3.787852-15.227259 5.717333-24.438518 10.121481-48.327111 24.566519-132.598519 31.009185-193.858371 2.256593-21.470815 2.517333-44.283259 2.49363-54.983111l-22.959408-2.759111c-37.044148-4.513185-74.619259-11.828148-111.971555-13.710222zM329.751704 233.955556c-1.607111-48.260741-3.835259-139.875556-4.522667-168.76563-29.828741-0.014222-91.259259 2.782815-132.039111 9.718518-8.196741 1.393778-17.550222 4.02963-23.073185 5.698371-0.57837 7.48563-1.464889 20.645926-1.616593 32.663704-0.587852 46.217481 1.59763 116.143407 3.053037 165.238518 52.171852-21.323852 102.59437-36.958815 158.198519-44.553481z" fill="#2c2c2c" p-id="3126"></path></svg>