<?xml version="1.0" standalone="no"?><!DOCTYPE svg PUBLIC "-//W3C//DTD SVG 1.1//EN" "http://www.w3.org/Graphics/SVG/1.1/DTD/svg11.dtd"><svg t="1728007922090" class="icon" viewBox="0 0 1024 1024" version="1.1" xmlns="http://www.w3.org/2000/svg" p-id="3282" xmlns:xlink="http://www.w3.org/1999/xlink" width="200" height="200"><path d="M469.555018 1011.453267v-123.193395s-79.879288-24.237096-121.276584-36.787473a47.869267 47.869267 0 0 1-31.886121-31.813239c-19.568968-64.6359-35.202278-133.05805-39.793879-212.110121a32.574861 32.574861 0 0 1 16.690107-30.268128c9.365409-5.236612 18.949466-10.567972 18.949466-10.567971l-7.178932-125.959289S236.804555 176.751146 214.356726 89.900641c-4.336512-16.755701 3.644128-34.262093 19.168114-41.969424 28.023345-14.073623 56.848399-23.475473 87.422633-23.132925 20.807972 0.047374 38.809964 14.612954 43.146477 34.976341 18.657936 86.063374 70.841851 330.008598 70.841851 330.008598s68.363843-268.320797 90.046405-353.44763a24.091331 24.091331 0 0 1 12.025623-15.290761 23.963786 23.963786 0 0 1 19.35032-1.428498l101.744057 36.280939a20.520085 20.520085 0 0 1 12.645125 25.592712c-23.759715 73.932071-109.068754 339.27926-109.068754 339.27926 43.948185-3.002762 85.34548-3.604043 104.477153 17.171131 16.945196-14.569224 56.374662-18.016569 115.373096-11.759601a29.896427 29.896427 0 0 1 26.7479 27.469438c4.26363 59.392-8.891673 122.730591-32.833594 188.525323 4.372954 63.568171 4.26363 123.062206-3.68057 175.508499a21.088569 21.088569 0 0 1-11.333238 15.523985c-28.205552 14.252185-108.995872 55.051843-108.995872 55.051844v123.193395h-181.878434z" fill="#ffffff" p-id="3283"></path><path d="M319.336769 583.61805c-3.206833 1.77469-10.24 5.699416-17.200285 9.587701a14.248541 14.248541 0 0 0-7.324698 13.290135c4.482278 77.477808 19.860498 144.537053 38.992171 207.835559a29.743374 29.743374 0 0 0 19.751175 19.703801l121.313025 36.787473a18.213352 18.213352 0 0 1 12.936654 17.437153v115.872342c0 10.057794-8.162847 18.220641-18.22064 18.22064s-18.220641-8.162847-18.220641-18.22064v-102.359915l-108.37637-32.862747a66.104484 66.104484 0 0 1-44.021067-43.97005c-19.969822-65.922278-35.858221-135.710975-40.559146-216.377395a50.744484 50.744484 0 0 1 25.982633-47.176883l9.000997-5.028897-6.413666-112.778476L196.711858 94.463089c-6.486548-25.093466 5.466192-51.302036 28.642847-62.81748 30.683559-15.407374 62.314591-25.443302 95.621921-25.067958A62.460356 62.460356 0 0 1 381.906448 55.915502c11.95274 55.106505 37.643843 174.929082 54.58904 254.035815L507.337338 31.838747a42.333836 42.333836 0 0 1 21.099502-26.875445 42.253665 42.253665 0 0 1 34.072598-2.50716c28.861495 10.291018 75.761423 27.028498 101.707615 36.28094 19.714733 7.022235 30.246263 28.416911 23.86904 48.328427l-100.978791 314.160285c18.329964-0.532043 35.530249 0.047374 50.216086 2.959032 11.588327 2.303089 21.791886 6.089338 30.282705 11.482647 7.251815-3.443701 16.034164-6.147644 26.419928-7.922334 21.90121-3.749808 51.928826-3.662349 89.390463 0.309751 23.140214 2.405125 41.25153 20.993822 43.037153 44.298021 4.336512 60.660157-8.52726 125.317922-32.578505 192.420897 4.227189 63.564527 3.862776 123.065851-4.117865 175.759943a39.312854 39.312854 0 0 1-21.099502 28.938021l-99.010961 49.997438v104.663004c0 10.057794-8.162847 18.220641-18.22064 18.22064s-18.220641-8.162847-18.220641-18.22064v-115.872342a18.191488 18.191488 0 0 1 10.021352-16.263744s80.79032-40.796014 108.995872-55.051843a2.951744 2.951744 0 0 0 1.530534-1.989694c7.761993-51.254662 7.798434-109.40037 3.534804-171.529111-0.182206-2.539957 0.182206-5.090847 1.056798-7.485039 22.994448-63.178249 35.858221-123.958662 31.776797-180.879943a11.734093 11.734093 0 0 0-10.495089-10.76111c-33.343772-3.53116-59.982349-3.964811-79.441993-0.634078-5.539075 0.943829-10.349324 2.088085-14.357865 3.651416 6.595872 55.813466 3.571246 136.337765-1.494092 221.628584a18.198776 18.198776 0 0 1-11.442563 15.851957c-63.371388 25.184569-102.800854 23.632171-133.375089 13.519715-10.021352 3.206833-20.152028 6.606804-30.428469 10.218135 6.632313 0.954762 12.900214 2.117238 18.803701 3.46921a18.249794 18.249794 0 0 1 11.078149 7.656314c21.026619 31.532641 38.263345 66.053466 49.742349 105.13674a18.275302 18.275302 0 0 1-12.353594 22.615459 18.246149 18.246149 0 0 1-22.630036-12.34995c-9.65694-32.859103-23.832598-62.136028-41.032883-89.00783-24.597865-4.649907-55.354306-5.662975-92.852384-2.980896a18.220641 18.220641 0 0 1-18.985907-13.77116 18.198776 18.198776 0 0 1 10.276441-21.063061A1165.946078 1165.946078 0 0 1 534.194562 661.773665v-0.003644l0.218648-0.065594 0.182206-0.06195c8.891673-2.784114 17.674021-5.426107 26.383488-7.940555 5.138221-49.815231 6.304342-86.719317-1.931388-113.361538-77.219075 5.447972-156.843274 18.949466-239.710747 43.277666z m329.720711-136.629296c-6.960285-5.094491-16.762989-7.182577-27.87758-8.447089-17.236726-1.953253-37.388754-1.016712-58.123843 0.39721-0.218648 0.018221-0.437295 0.029153-0.692384 0.036442l-0.109324 0.003644-0.145765 0.003644-0.072883 0.003644-0.218648 0.003644H561.525523c-10.167117-0.076527-18.293523 0.204071-24.561423 0.874591-1.348327 17.218505-0.947473 40.107274 0.546619 65.612527a1184.341637 1184.341637 0 0 1 32.614946-2.375972 18.227929 18.227929 0 0 1 17.564698 10.414918c15.523986 32.931986 16.252811 82.513993 8.417936 154.45637 14.79516-1.486804 31.995445-5.513566 52.548327-12.947587 4.628043-80.899644 7.324698-156.431488 0.400854-208.035986z m-100.723701-44.243359l105.060214-326.830918a2.306733 2.306733 0 0 0-1.42121-2.856997c-25.946192-9.248797-72.846121-25.986278-101.707616-36.277295a5.830605 5.830605 0 0 0-4.700925 0.346192c-1.457651 0.768911-2.514448 2.117238-2.915302 3.706079-21.682562 85.126833-90.046406 353.451274-90.046406 353.451274a18.206064 18.206064 0 0 1-18.001993 13.716498 18.191488 18.191488 0 0 1-17.455374-14.401595s-52.183915-243.912427-70.84185-330.012242a26.10289 26.10289 0 0 0-25.545338-20.571103c-27.658932-0.306107-53.714448 8.46531-79.114022 21.227047a18.395559 18.395559 0 0 0-9.620498 21.099501c22.411388 86.850505 90.665907 350.849367 90.665908 350.849367 0.29153 1.155189 0.473737 2.335886 0.546619 3.523872l5.903487 103.234505a1163.497224 1163.497224 0 0 1 172.112171-33.74827c-2.113594-35.77805-2.113594-67.037381 1.056797-86.828641a18.206064 18.206064 0 0 1 9.110321-13.067843c5.539075-3.082932 17.564698-5.80874 36.915017-6.559431z" fill="#000000" p-id="3284"></path></svg>